<?xml version="1.0" encoding="UTF-8" standalone="no"?>
<svg
   width="154.11mm"
   height="250.70mm"
   viewBox="0.0 0.0 154.11 250.70"
   version="1.1"
   id="svg1122"
   sodipodi:docname="teabot_box.svg"
   inkscape:version="1.2.2 (b0a8486541, 2022-12-01)"
   xmlns:inkscape="http://www.inkscape.org/namespaces/inkscape"
   xmlns:sodipodi="http://sodipodi.sourceforge.net/DTD/sodipodi-0.dtd"
   xmlns="http://www.w3.org/2000/svg"
   xmlns:svg="http://www.w3.org/2000/svg"
   xmlns:rdf="http://www.w3.org/1999/02/22-rdf-syntax-ns#"
   xmlns:cc="http://creativecommons.org/ns#"
   xmlns:dc="http://purl.org/dc/elements/1.1/">
  <defs
     id="defs1126" />
  <sodipodi:namedview
     id="namedview1124"
     pagecolor="#ffffff"
     bordercolor="#666666"
     borderopacity="1.0"
     inkscape:pageshadow="2"
     inkscape:pageopacity="0.0"
     inkscape:pagecheckerboard="0"
     inkscape:document-units="mm"
     showgrid="false"
     inkscape:zoom="0.68097689"
     inkscape:cx="214.39788"
     inkscape:cy="439.80935"
     inkscape:window-width="1860"
     inkscape:window-height="1080"
     inkscape:window-x="60"
     inkscape:window-y="0"
     inkscape:window-maximized="1"
     inkscape:current-layer="svg1122"
     inkscape:showpageshadow="2"
     inkscape:deskcolor="#d1d1d1" />
  <!--
TypeTray - Type tray - allows only continuous walls

Created with Boxes.py (https://festi.info/boxes.py)
Creation date: 2023-05-13 13:12:59
Command line (remove spaces between dashes): boxes TypeTray - -sx=35:27 - -sy=55 - -h=40 - -outside=0 - -bottom_edge=F - -top_edge=L - -burn=0.07
Url: http://www.festi.info/boxes.py/TypeTray?FingerJoint_angle=90.0&FingerJoint_style=rectangular&FingerJoint_surroundingspaces=0.5&FingerJoint_bottom_lip=0.0&FingerJoint_edge_width=1.0&FingerJoint_extra_length=0.0&FingerJoint_finger=2.0&FingerJoint_play=0.0&FingerJoint_space=2.0&FingerJoint_width=1.0&Stackable_angle=60&Stackable_bottom_stabilizers=0.0&Stackable_height=2.0&Stackable_holedistance=1.0&Stackable_width=4.0&Hinge_grip_percentage=0&Hinge_outset=0&Hinge_pinwidth=0.5&Hinge_style=outset&Hinge_axle=2.0&Hinge_grip_length=0&Hinge_hingestrength=1&CabinetHinge_bore=3.2&CabinetHinge_eyes_per_hinge=5&CabinetHinge_hinges=2&CabinetHinge_style=inside&CabinetHinge_eye=1.5&CabinetHinge_play=0.05&CabinetHinge_spacing=2.0&SlideOnLid_angle=90.0&SlideOnLid_hole_width=0&SlideOnLid_second_pin=0&SlideOnLid_second_pin=1&SlideOnLid_spring=both&SlideOnLid_style=rectangular&SlideOnLid_surroundingspaces=2.0&SlideOnLid_bottom_lip=0.0&SlideOnLid_edge_width=1.0&SlideOnLid_extra_length=0.0&SlideOnLid_finger=3.0&SlideOnLid_play=0.05&SlideOnLid_space=2.0&SlideOnLid_width=1.0&Click_angle=5.0&Click_bottom_radius=0.1&Click_depth=3.0&RoundedTriangleEdge_height=50.0&RoundedTriangleEdge_r_hole=2.0&RoundedTriangleEdge_radius=30.0&RoundedTriangleEdge_outset=1.0&Mounting_d_head=6.5&Mounting_d_shaft=3.0&Mounting_margin=0.125&Mounting_num=2&Mounting_side=back&Mounting_style=straight+edge%2C+within&HandleEdge_height=20.0&HandleEdge_hole_height=75.0&HandleEdge_hole_width=40%3A40&HandleEdge_on_sides=0&HandleEdge_on_sides=1&HandleEdge_radius=10.0&HandleEdge_outset=1.0&Lid_handle=none&Lid_style=none&Lid_handle_height=8.0&Lid_height=4.0&Lid_play=0.1&sx=35%3A27&sy=55&h=40&hi=0.0&outside=0&bottom_edge=F&top_edge=L&back_height=0.0&radius=0.0&gripheight=30&gripwidth=0&handle=0&thickness=3.0&format=svg&tabs=0.0&qr_code=0&debug=0&labels=0&labels=1&reference=100&inner_corners=loop&burn=0.07&language=de&render=1
Url short: http://www.festi.info/boxes.py/TypeTray?sx=35%3A27&sy=55&h=40&outside=0&bottom_edge=F&top_edge=L&burn=0.07
SettingsUrl: http://www.festi.info/boxes.py/TypeTray?FingerJoint_angle=90.0&FingerJoint_style=rectangular&FingerJoint_surroundingspaces=0.5&FingerJoint_bottom_lip=0.0&FingerJoint_edge_width=1.0&FingerJoint_extra_length=0.0&FingerJoint_finger=2.0&FingerJoint_play=0.0&FingerJoint_space=2.0&FingerJoint_width=1.0&Stackable_angle=60&Stackable_bottom_stabilizers=0.0&Stackable_height=2.0&Stackable_holedistance=1.0&Stackable_width=4.0&Hinge_grip_percentage=0&Hinge_outset=0&Hinge_pinwidth=0.5&Hinge_style=outset&Hinge_axle=2.0&Hinge_grip_length=0&Hinge_hingestrength=1&CabinetHinge_bore=3.2&CabinetHinge_eyes_per_hinge=5&CabinetHinge_hinges=2&CabinetHinge_style=inside&CabinetHinge_eye=1.5&CabinetHinge_play=0.05&CabinetHinge_spacing=2.0&SlideOnLid_angle=90.0&SlideOnLid_hole_width=0&SlideOnLid_second_pin=0&SlideOnLid_second_pin=1&SlideOnLid_spring=both&SlideOnLid_style=rectangular&SlideOnLid_surroundingspaces=2.0&SlideOnLid_bottom_lip=0.0&SlideOnLid_edge_width=1.0&SlideOnLid_extra_length=0.0&SlideOnLid_finger=3.0&SlideOnLid_play=0.05&SlideOnLid_space=2.0&SlideOnLid_width=1.0&Click_angle=5.0&Click_bottom_radius=0.1&Click_depth=3.0&RoundedTriangleEdge_height=50.0&RoundedTriangleEdge_r_hole=2.0&RoundedTriangleEdge_radius=30.0&RoundedTriangleEdge_outset=1.0&Mounting_d_head=6.5&Mounting_d_shaft=3.0&Mounting_margin=0.125&Mounting_num=2&Mounting_side=back&Mounting_style=straight+edge%2C+within&HandleEdge_height=20.0&HandleEdge_hole_height=75.0&HandleEdge_hole_width=40%3A40&HandleEdge_on_sides=0&HandleEdge_on_sides=1&HandleEdge_radius=10.0&HandleEdge_outset=1.0&Lid_handle=none&Lid_style=none&Lid_handle_height=8.0&Lid_height=4.0&Lid_play=0.1&sx=35%3A27&sy=55&h=40&hi=0.0&outside=0&bottom_edge=F&top_edge=L&back_height=0.0&radius=0.0&gripheight=30&gripwidth=0&handle=0&thickness=3.0&format=svg&tabs=0.0&qr_code=0&debug=0&labels=0&labels=1&reference=100&inner_corners=loop&burn=0.07&language=de
SettingsUrl short: http://www.festi.info/boxes.py/TypeTray?sx=35%3A27&sy=55&h=40&outside=0&bottom_edge=F&top_edge=L&burn=0.07
-->
  <title
     id="title1048">TypeTray</title>
  <metadata
     id="metadata1050">
    <rdf:RDF>
      <cc:Work>
        <dc:title>Tray - TypeTray</dc:title>
        <dc:date>2023-05-13 13:12:59</dc:date>
        <dc:source>http://www.festi.info/boxes.py/TypeTray?FingerJoint_angle=90.0&amp;FingerJoint_style=rectangular&amp;FingerJoint_surroundingspaces=0.5&amp;FingerJoint_bottom_lip=0.0&amp;FingerJoint_edge_width=1.0&amp;FingerJoint_extra_length=0.0&amp;FingerJoint_finger=2.0&amp;FingerJoint_play=0.0&amp;FingerJoint_space=2.0&amp;FingerJoint_width=1.0&amp;Stackable_angle=60&amp;Stackable_bottom_stabilizers=0.0&amp;Stackable_height=2.0&amp;Stackable_holedistance=1.0&amp;Stackable_width=4.0&amp;Hinge_grip_percentage=0&amp;Hinge_outset=0&amp;Hinge_pinwidth=0.5&amp;Hinge_style=outset&amp;Hinge_axle=2.0&amp;Hinge_grip_length=0&amp;Hinge_hingestrength=1&amp;CabinetHinge_bore=3.2&amp;CabinetHinge_eyes_per_hinge=5&amp;CabinetHinge_hinges=2&amp;CabinetHinge_style=inside&amp;CabinetHinge_eye=1.5&amp;CabinetHinge_play=0.05&amp;CabinetHinge_spacing=2.0&amp;SlideOnLid_angle=90.0&amp;SlideOnLid_hole_width=0&amp;SlideOnLid_second_pin=0&amp;SlideOnLid_second_pin=1&amp;SlideOnLid_spring=both&amp;SlideOnLid_style=rectangular&amp;SlideOnLid_surroundingspaces=2.0&amp;SlideOnLid_bottom_lip=0.0&amp;SlideOnLid_edge_width=1.0&amp;SlideOnLid_extra_length=0.0&amp;SlideOnLid_finger=3.0&amp;SlideOnLid_play=0.05&amp;SlideOnLid_space=2.0&amp;SlideOnLid_width=1.0&amp;Click_angle=5.0&amp;Click_bottom_radius=0.1&amp;Click_depth=3.0&amp;RoundedTriangleEdge_height=50.0&amp;RoundedTriangleEdge_r_hole=2.0&amp;RoundedTriangleEdge_radius=30.0&amp;RoundedTriangleEdge_outset=1.0&amp;Mounting_d_head=6.5&amp;Mounting_d_shaft=3.0&amp;Mounting_margin=0.125&amp;Mounting_num=2&amp;Mounting_side=back&amp;Mounting_style=straight+edge%2C+within&amp;HandleEdge_height=20.0&amp;HandleEdge_hole_height=75.0&amp;HandleEdge_hole_width=40%3A40&amp;HandleEdge_on_sides=0&amp;HandleEdge_on_sides=1&amp;HandleEdge_radius=10.0&amp;HandleEdge_outset=1.0&amp;Lid_handle=none&amp;Lid_style=none&amp;Lid_handle_height=8.0&amp;Lid_height=4.0&amp;Lid_play=0.1&amp;sx=35%3A27&amp;sy=55&amp;h=40&amp;hi=0.0&amp;outside=0&amp;bottom_edge=F&amp;top_edge=L&amp;back_height=0.0&amp;radius=0.0&amp;gripheight=30&amp;gripwidth=0&amp;handle=0&amp;thickness=3.0&amp;format=svg&amp;tabs=0.0&amp;qr_code=0&amp;debug=0&amp;labels=0&amp;labels=1&amp;reference=100&amp;inner_corners=loop&amp;burn=0.07&amp;language=de&amp;render=1</dc:source>
        <dc:source>http://www.festi.info/boxes.py/TypeTray?sx=35%3A27&amp;sy=55&amp;h=40&amp;outside=0&amp;bottom_edge=F&amp;top_edge=L&amp;burn=0.07</dc:source>
        <dc:description>Type tray - allows only continuous walls

Created with Boxes.py (https://festi.info/boxes.py)
Command line: boxes TypeTray --FingerJoint_angle=90.0 --FingerJoint_style=rectangular --FingerJoint_surroundingspaces=0.5 --FingerJoint_bottom_lip=0.0 --FingerJoint_edge_width=1.0 --FingerJoint_extra_length=0.0 --FingerJoint_finger=2.0 --FingerJoint_play=0.0 --FingerJoint_space=2.0 --FingerJoint_width=1.0 --Stackable_angle=60 --Stackable_bottom_stabilizers=0.0 --Stackable_height=2.0 --Stackable_holedistance=1.0 --Stackable_width=4.0 --Hinge_grip_percentage=0 --Hinge_outset=0 --Hinge_pinwidth=0.5 --Hinge_style=outset --Hinge_axle=2.0 --Hinge_grip_length=0 --Hinge_hingestrength=1 --CabinetHinge_bore=3.2 --CabinetHinge_eyes_per_hinge=5 --CabinetHinge_hinges=2 --CabinetHinge_style=inside --CabinetHinge_eye=1.5 --CabinetHinge_play=0.05 --CabinetHinge_spacing=2.0 --SlideOnLid_angle=90.0 --SlideOnLid_hole_width=0 --SlideOnLid_second_pin=0 --SlideOnLid_second_pin=1 --SlideOnLid_spring=both --SlideOnLid_style=rectangular --SlideOnLid_surroundingspaces=2.0 --SlideOnLid_bottom_lip=0.0 --SlideOnLid_edge_width=1.0 --SlideOnLid_extra_length=0.0 --SlideOnLid_finger=3.0 --SlideOnLid_play=0.05 --SlideOnLid_space=2.0 --SlideOnLid_width=1.0 --Click_angle=5.0 --Click_bottom_radius=0.1 --Click_depth=3.0 --RoundedTriangleEdge_height=50.0 --RoundedTriangleEdge_r_hole=2.0 --RoundedTriangleEdge_radius=30.0 --RoundedTriangleEdge_outset=1.0 --Mounting_d_head=6.5 --Mounting_d_shaft=3.0 --Mounting_margin=0.125 --Mounting_num=2 --Mounting_side=back '--Mounting_style=straight edge, within' --HandleEdge_height=20.0 --HandleEdge_hole_height=75.0 --HandleEdge_hole_width=40:40 --HandleEdge_on_sides=0 --HandleEdge_on_sides=1 --HandleEdge_radius=10.0 --HandleEdge_outset=1.0 --Lid_handle=none --Lid_style=none --Lid_handle_height=8.0 --Lid_height=4.0 --Lid_play=0.1 --sx=35:27 --sy=55 --h=40 --hi=0.0 --outside=0 --bottom_edge=F --top_edge=L --back_height=0.0 --radius=0.0 --gripheight=30 --gripwidth=0 --handle=0 --thickness=3.0 --format=svg --tabs=0.0 --qr_code=0 --debug=0 --labels=0 --labels=1 --reference=100 --inner_corners=loop --burn=0.07
Command line short: boxes TypeTray --sx=35:27 --sy=55 --h=40 --outside=0 --bottom_edge=F --top_edge=L --burn=0.07
Url: http://www.festi.info/boxes.py/TypeTray?FingerJoint_angle=90.0&amp;FingerJoint_style=rectangular&amp;FingerJoint_surroundingspaces=0.5&amp;FingerJoint_bottom_lip=0.0&amp;FingerJoint_edge_width=1.0&amp;FingerJoint_extra_length=0.0&amp;FingerJoint_finger=2.0&amp;FingerJoint_play=0.0&amp;FingerJoint_space=2.0&amp;FingerJoint_width=1.0&amp;Stackable_angle=60&amp;Stackable_bottom_stabilizers=0.0&amp;Stackable_height=2.0&amp;Stackable_holedistance=1.0&amp;Stackable_width=4.0&amp;Hinge_grip_percentage=0&amp;Hinge_outset=0&amp;Hinge_pinwidth=0.5&amp;Hinge_style=outset&amp;Hinge_axle=2.0&amp;Hinge_grip_length=0&amp;Hinge_hingestrength=1&amp;CabinetHinge_bore=3.2&amp;CabinetHinge_eyes_per_hinge=5&amp;CabinetHinge_hinges=2&amp;CabinetHinge_style=inside&amp;CabinetHinge_eye=1.5&amp;CabinetHinge_play=0.05&amp;CabinetHinge_spacing=2.0&amp;SlideOnLid_angle=90.0&amp;SlideOnLid_hole_width=0&amp;SlideOnLid_second_pin=0&amp;SlideOnLid_second_pin=1&amp;SlideOnLid_spring=both&amp;SlideOnLid_style=rectangular&amp;SlideOnLid_surroundingspaces=2.0&amp;SlideOnLid_bottom_lip=0.0&amp;SlideOnLid_edge_width=1.0&amp;SlideOnLid_extra_length=0.0&amp;SlideOnLid_finger=3.0&amp;SlideOnLid_play=0.05&amp;SlideOnLid_space=2.0&amp;SlideOnLid_width=1.0&amp;Click_angle=5.0&amp;Click_bottom_radius=0.1&amp;Click_depth=3.0&amp;RoundedTriangleEdge_height=50.0&amp;RoundedTriangleEdge_r_hole=2.0&amp;RoundedTriangleEdge_radius=30.0&amp;RoundedTriangleEdge_outset=1.0&amp;Mounting_d_head=6.5&amp;Mounting_d_shaft=3.0&amp;Mounting_margin=0.125&amp;Mounting_num=2&amp;Mounting_side=back&amp;Mounting_style=straight+edge%2C+within&amp;HandleEdge_height=20.0&amp;HandleEdge_hole_height=75.0&amp;HandleEdge_hole_width=40%3A40&amp;HandleEdge_on_sides=0&amp;HandleEdge_on_sides=1&amp;HandleEdge_radius=10.0&amp;HandleEdge_outset=1.0&amp;Lid_handle=none&amp;Lid_style=none&amp;Lid_handle_height=8.0&amp;Lid_height=4.0&amp;Lid_play=0.1&amp;sx=35%3A27&amp;sy=55&amp;h=40&amp;hi=0.0&amp;outside=0&amp;bottom_edge=F&amp;top_edge=L&amp;back_height=0.0&amp;radius=0.0&amp;gripheight=30&amp;gripwidth=0&amp;handle=0&amp;thickness=3.0&amp;format=svg&amp;tabs=0.0&amp;qr_code=0&amp;debug=0&amp;labels=0&amp;labels=1&amp;reference=100&amp;inner_corners=loop&amp;burn=0.07&amp;language=de&amp;render=1
Url short: http://www.festi.info/boxes.py/TypeTray?sx=35%3A27&amp;sy=55&amp;h=40&amp;outside=0&amp;bottom_edge=F&amp;top_edge=L&amp;burn=0.07
SettingsUrl: http://www.festi.info/boxes.py/TypeTray?FingerJoint_angle=90.0&amp;FingerJoint_style=rectangular&amp;FingerJoint_surroundingspaces=0.5&amp;FingerJoint_bottom_lip=0.0&amp;FingerJoint_edge_width=1.0&amp;FingerJoint_extra_length=0.0&amp;FingerJoint_finger=2.0&amp;FingerJoint_play=0.0&amp;FingerJoint_space=2.0&amp;FingerJoint_width=1.0&amp;Stackable_angle=60&amp;Stackable_bottom_stabilizers=0.0&amp;Stackable_height=2.0&amp;Stackable_holedistance=1.0&amp;Stackable_width=4.0&amp;Hinge_grip_percentage=0&amp;Hinge_outset=0&amp;Hinge_pinwidth=0.5&amp;Hinge_style=outset&amp;Hinge_axle=2.0&amp;Hinge_grip_length=0&amp;Hinge_hingestrength=1&amp;CabinetHinge_bore=3.2&amp;CabinetHinge_eyes_per_hinge=5&amp;CabinetHinge_hinges=2&amp;CabinetHinge_style=inside&amp;CabinetHinge_eye=1.5&amp;CabinetHinge_play=0.05&amp;CabinetHinge_spacing=2.0&amp;SlideOnLid_angle=90.0&amp;SlideOnLid_hole_width=0&amp;SlideOnLid_second_pin=0&amp;SlideOnLid_second_pin=1&amp;SlideOnLid_spring=both&amp;SlideOnLid_style=rectangular&amp;SlideOnLid_surroundingspaces=2.0&amp;SlideOnLid_bottom_lip=0.0&amp;SlideOnLid_edge_width=1.0&amp;SlideOnLid_extra_length=0.0&amp;SlideOnLid_finger=3.0&amp;SlideOnLid_play=0.05&amp;SlideOnLid_space=2.0&amp;SlideOnLid_width=1.0&amp;Click_angle=5.0&amp;Click_bottom_radius=0.1&amp;Click_depth=3.0&amp;RoundedTriangleEdge_height=50.0&amp;RoundedTriangleEdge_r_hole=2.0&amp;RoundedTriangleEdge_radius=30.0&amp;RoundedTriangleEdge_outset=1.0&amp;Mounting_d_head=6.5&amp;Mounting_d_shaft=3.0&amp;Mounting_margin=0.125&amp;Mounting_num=2&amp;Mounting_side=back&amp;Mounting_style=straight+edge%2C+within&amp;HandleEdge_height=20.0&amp;HandleEdge_hole_height=75.0&amp;HandleEdge_hole_width=40%3A40&amp;HandleEdge_on_sides=0&amp;HandleEdge_on_sides=1&amp;HandleEdge_radius=10.0&amp;HandleEdge_outset=1.0&amp;Lid_handle=none&amp;Lid_style=none&amp;Lid_handle_height=8.0&amp;Lid_height=4.0&amp;Lid_play=0.1&amp;sx=35%3A27&amp;sy=55&amp;h=40&amp;hi=0.0&amp;outside=0&amp;bottom_edge=F&amp;top_edge=L&amp;back_height=0.0&amp;radius=0.0&amp;gripheight=30&amp;gripwidth=0&amp;handle=0&amp;thickness=3.0&amp;format=svg&amp;tabs=0.0&amp;qr_code=0&amp;debug=0&amp;labels=0&amp;labels=1&amp;reference=100&amp;inner_corners=loop&amp;burn=0.07&amp;language=de
SettingsUrl short: http://www.festi.info/boxes.py/TypeTray?sx=35%3A27&amp;sy=55&amp;h=40&amp;outside=0&amp;bottom_edge=F&amp;top_edge=L&amp;burn=0.07
</dc:description>
      </cc:Work>
    </rdf:RDF>
  </metadata>
  <g
     id="p-1"
     style="fill:none;stroke-linecap:round;stroke-linejoin:round"
     transform="translate(0,12.170835)">
    <path
       d="m 51.33,217.99 v 2.93 c 0,0.07 0.07,0 0,0 h -2.86 c -0.07,0 0,0.07 0,0 v -5.86 c 0,-0.07 -0.07,0 0,0 h 2.86 c 0.07,0 0,-0.07 0,0 z"
       stroke="#0000ff"
       stroke-width="0.14"
       id="path1057" />
    <path
       d="m 51.33,205.99 v 2.93 c 0,0.07 0.07,0 0,0 h -2.86 c -0.07,0 0,0.07 0,0 v -5.86 c 0,-0.07 -0.07,0 0,0 h 2.86 c 0.07,0 0,-0.07 0,0 z"
       stroke="#0000ff"
       stroke-width="0.14"
       id="path1059" />
    <path
       d="m 51.33,193.99 v 2.93 c 0,0.07 0.07,0 0,0 h -2.86 c -0.07,0 0,0.07 0,0 v -5.86 c 0,-0.07 -0.07,0 0,0 h 2.86 c 0.07,0 0,-0.07 0,0 z"
       stroke="#0000ff"
       stroke-width="0.14"
       id="path1061" />
    <text
       transform="translate(45.9,202.56)"
       style="font-style:normal;font-weight:normal;font-family:sans-serif;fill:#ff0000"
       font-size="4px"
       text-anchor="middle"
       dominant-baseline="hanging"
       id="text1063">back</text>
    <path
       d="m 13.4,229.06 h 5.5 c 0.039,0 0.07,-0.031 0.07,-0.07 v -2.93 c 0,-0.07 -0.07,0 0,0 h 5.86 c 0.07,0 0,-0.07 0,0 v 2.93 c 0,0.039 0.031,0.07 0.07,0.07 h 6 c 0.039,0 0.07,-0.031 0.07,-0.07 v -2.93 c 0,-0.07 -0.07,0 0,0 h 5.86 c 0.07,0 0,-0.07 0,0 v 2.93 c 0,0.039 0.031,0.07 0.07,0.07 h 6 c 0.039,0 0.07,-0.031 0.07,-0.07 v -2.93 c 0,-0.07 -0.07,0 0,0 h 5.86 c 0.07,0 0,-0.07 0,0 v 2.93 c 0,0.039 0.031,0.07 0.07,0.07 h 6 c 0.039,0 0.07,-0.031 0.07,-0.07 v -2.93 c 0,-0.07 -0.07,0 0,0 h 5.86 c 0.07,0 0,-0.07 0,0 v 2.93 c 0,0.039 0.031,0.07 0.07,0.07 h 6 c 0.039,0 0.07,-0.031 0.07,-0.07 v -2.93 c 0,-0.07 -0.07,0 0,0 h 5.86 c 0.07,0 0,-0.07 0,0 v 2.93 c 0,0.039 0.031,0.07 0.07,0.07 h 5.5 3 c 0.039,0 0.07,-0.031 0.07,-0.07 v -6.5 c 0,-0.039 -0.031,-0.07 -0.07,-0.07 h -2.93 c -0.07,0 0,0.07 0,0 v -5.86 c 0,-0.07 -0.07,0 0,0 h 2.93 c 0.039,0 0.07,-0.031 0.07,-0.07 v -6 c 0,-0.039 -0.031,-0.07 -0.07,-0.07 h -2.93 c -0.07,0 0,0.07 0,0 v -5.86 c 0,-0.07 -0.07,0 0,0 h 2.93 c 0.039,0 0.07,-0.031 0.07,-0.07 v -6 c 0,-0.039 -0.031,-0.07 -0.07,-0.07 h -2.93 c -0.07,0 0,0.07 0,0 v -5.86 c 0,-0.07 -0.07,0 0,0 h 2.93 c 0.039,0 0.07,-0.031 0.07,-0.07 v -6.5 -6 c 0,-0.039 -0.031,-0.07 -0.07,-0.07 h -3 -65 -3 c -0.039,0 -0.07,0.031 -0.07,0.07 v 6 6.5 c 0,0.039 0.031,0.07 0.07,0.07 h 2.93 c 0.07,0 0,-0.07 0,0 v 5.86 c 0,0.07 0.07,0 0,0 H 10.4 c -0.039,0 -0.07,0.031 -0.07,0.07 v 6 c 0,0.039 0.031,0.07 0.07,0.07 h 2.93 c 0.07,0 0,-0.07 0,0 v 5.86 c 0,0.07 0.07,0 0,0 H 10.4 c -0.039,0 -0.07,0.031 -0.07,0.07 v 6 c 0,0.039 0.031,0.07 0.07,0.07 h 2.93 c 0.07,0 0,-0.07 0,0 v 5.86 c 0,0.07 0.07,0 0,0 H 10.4 c -0.039,0 -0.07,0.031 -0.07,0.07 v 6.5 c 0,0.039 0.031,0.07 0.07,0.07 h 3"
       stroke="#000000"
       stroke-width="0.14"
       id="path1065" />
    <path
       d="m 60.9,182.985 h 4.505 c 0.07,0 0,-0.07 0,0 v 3.01 c 0,0.07 0.07,0 0,0 h -9.01 c -0.07,0 0,0.07 0,0 v -3.01 c 0,-0.07 -0.07,0 0,0 z"
       stroke="#0000ff"
       stroke-width="0.14"
       id="path1067" />
    <path
       d="m 45.9,182.985 h 4.505 c 0.07,0 0,-0.07 0,0 v 3.01 c 0,0.07 0.07,0 0,0 h -9.01 c -0.07,0 0,0.07 0,0 v -3.01 c 0,-0.07 -0.07,0 0,0 z"
       stroke="#0000ff"
       stroke-width="0.14"
       id="path1069" />
    <path
       d="m 30.9,182.985 h 4.505 c 0.07,0 0,-0.07 0,0 v 3.01 c 0,0.07 0.07,0 0,0 h -9.01 c -0.07,0 0,0.07 0,0 v -3.01 c 0,-0.07 -0.07,0 0,0 z"
       stroke="#0000ff"
       stroke-width="0.14"
       id="path1071" />
  </g>
  <g
     id="p-2"
     style="fill:none;stroke-linecap:round;stroke-linejoin:round"
     transform="translate(0,12.170835)">
    <path
       d="m 40.47,167.35 v 2.93 c 0,0.07 -0.07,0 0,0 h 2.86 c 0.07,0 0,0.07 0,0 v -5.86 c 0,-0.07 0.07,0 0,0 h -2.86 c -0.07,0 0,-0.07 0,0 z"
       stroke="#0000ff"
       stroke-width="0.14"
       id="path1074" />
    <path
       d="m 40.47,155.35 v 2.93 c 0,0.07 -0.07,0 0,0 h 2.86 c 0.07,0 0,0.07 0,0 v -5.86 c 0,-0.07 0.07,0 0,0 h -2.86 c -0.07,0 0,-0.07 0,0 z"
       stroke="#0000ff"
       stroke-width="0.14"
       id="path1076" />
    <path
       d="m 40.47,143.35 v 2.93 c 0,0.07 -0.07,0 0,0 h 2.86 c 0.07,0 0,0.07 0,0 v -5.86 c 0,-0.07 0.07,0 0,0 h -2.86 c -0.07,0 0,-0.07 0,0 z"
       stroke="#0000ff"
       stroke-width="0.14"
       id="path1078" />
    <text
       transform="translate(45.9,154.92)"
       style="font-style:normal;font-weight:normal;font-family:sans-serif;fill:#ff0000"
       font-size="4px"
       text-anchor="middle"
       dominant-baseline="hanging"
       id="text1080">front</text>
    <path
       d="m 13.4,178.42 h 5.5 c 0.039,0 0.07,-0.031 0.07,-0.07 v -2.93 c 0,-0.07 -0.07,0 0,0 h 5.86 c 0.07,0 0,-0.07 0,0 v 2.93 c 0,0.039 0.031,0.07 0.07,0.07 h 6 c 0.039,0 0.07,-0.031 0.07,-0.07 v -2.93 c 0,-0.07 -0.07,0 0,0 h 5.86 c 0.07,0 0,-0.07 0,0 v 2.93 c 0,0.039 0.031,0.07 0.07,0.07 h 6 c 0.039,0 0.07,-0.031 0.07,-0.07 v -2.93 c 0,-0.07 -0.07,0 0,0 h 5.86 c 0.07,0 0,-0.07 0,0 v 2.93 c 0,0.039 0.031,0.07 0.07,0.07 h 6 c 0.039,0 0.07,-0.031 0.07,-0.07 v -2.93 c 0,-0.07 -0.07,0 0,0 h 5.86 c 0.07,0 0,-0.07 0,0 v 2.93 c 0,0.039 0.031,0.07 0.07,0.07 h 6 c 0.039,0 0.07,-0.031 0.07,-0.07 v -2.93 c 0,-0.07 -0.07,0 0,0 h 5.86 c 0.07,0 0,-0.07 0,0 v 2.93 c 0,0.039 0.031,0.07 0.07,0.07 h 5.5 3 c 0.039,0 0.07,-0.031 0.07,-0.07 v -6.5 c 0,-0.039 -0.031,-0.07 -0.07,-0.07 h -2.93 c -0.07,0 0,0.07 0,0 v -5.86 c 0,-0.07 -0.07,0 0,0 h 2.93 c 0.039,0 0.07,-0.031 0.07,-0.07 v -6 c 0,-0.039 -0.031,-0.07 -0.07,-0.07 h -2.93 c -0.07,0 0,0.07 0,0 v -5.86 c 0,-0.07 -0.07,0 0,0 h 2.93 c 0.039,0 0.07,-0.031 0.07,-0.07 v -6 c 0,-0.039 -0.031,-0.07 -0.07,-0.07 h -2.93 c -0.07,0 0,0.07 0,0 v -5.86 c 0,-0.07 -0.07,0 0,0 h 2.93 c 0.039,0 0.07,-0.031 0.07,-0.07 v -6.5 c 0,-0.039 -0.031,-0.07 -0.07,-0.07 h -3 -65 -3 c -0.039,0 -0.07,0.031 -0.07,0.07 v 6.5 c 0,0.039 0.031,0.07 0.07,0.07 h 2.93 c 0.07,0 0,-0.07 0,0 v 5.86 c 0,0.07 0.07,0 0,0 H 10.4 c -0.039,0 -0.07,0.031 -0.07,0.07 v 6 c 0,0.039 0.031,0.07 0.07,0.07 h 2.93 c 0.07,0 0,-0.07 0,0 v 5.86 c 0,0.07 0.07,0 0,0 H 10.4 c -0.039,0 -0.07,0.031 -0.07,0.07 v 6 c 0,0.039 0.031,0.07 0.07,0.07 h 2.93 c 0.07,0 0,-0.07 0,0 v 5.86 c 0,0.07 0.07,0 0,0 H 10.4 c -0.039,0 -0.07,0.031 -0.07,0.07 v 6.5 c 0,0.039 0.031,0.07 0.07,0.07 h 3"
       stroke="#000000"
       stroke-width="0.14"
       id="path1082" />
  </g>
  <g
     id="p-4"
     style="fill:none;stroke-linecap:round;stroke-linejoin:round"
     transform="translate(0,-5.2916669)">
    <text
       transform="translate(45.9,38.64)"
       style="font-style:normal;font-weight:normal;font-family:sans-serif;fill:#ff0000"
       font-size="4px"
       text-anchor="middle"
       dominant-baseline="hanging"
       id="text1098">lid top</text>
    <path
       d="m 13.4,71.14 h 65 3 c 0.039,0 0.07,-0.031 0.07,-0.07 v -3 C 81.47,68.031 81.439,68 81.4,68 h -5.93 c -0.07,0 0,0.07 0,0 V 50.07 c 0,-0.119 0.031,-0.237 0.091,-0.34 0.06,-0.103 0.146,-0.189 0.249,-0.249 0.103,-0.06 0.221,-0.091 0.34,-0.091 0.119,0 0.237,0.031 0.34,0.091 0.103,0.06 0.189,0.146 0.249,0.249 0.06,0.103 0.091,0.221 0.091,0.34 v 17.4 c 0,0.039 0.031,0.07 0.07,0.07 h 1.5 c 0.025,0 0.048,-0.013 0.061,-0.035 l 0.692,-1.2 c 0.013,-0.022 0.013,-0.048 0,-0.07 L 78.47,65.051 c -0.009,-0.016 0,0.019 0,0 V 22.14 c 0,-0.07 -0.07,0 0,0 h 2.93 c 0.039,0 0.07,-0.031 0.07,-0.07 v -6 C 81.47,16.031 81.439,16 81.4,16 h -2.93 c -0.07,0 0,0.07 0,0 V 13.07 C 78.47,13.031 78.439,13 78.4,13 H 65.47 c -0.07,0 0,0.07 0,0 V 10.07 C 65.47,10.031 65.439,10 65.4,10 h -9 c -0.039,0 -0.07,0.031 -0.07,0.07 V 13 c 0,0.07 0.07,0 0,0 h -5.86 c -0.07,0 0,0.07 0,0 V 10.07 C 50.47,10.031 50.439,10 50.4,10 h -9 c -0.039,0 -0.07,0.031 -0.07,0.07 V 13 c 0,0.07 0.07,0 0,0 h -5.86 c -0.07,0 0,0.07 0,0 V 10.07 C 35.47,10.031 35.439,10 35.4,10 h -9 c -0.039,0 -0.07,0.031 -0.07,0.07 V 13 c 0,0.07 0.07,0 0,0 H 13.4 c -0.039,0 -0.07,0.031 -0.07,0.07 V 16 c 0,0.07 0.07,0 0,0 H 10.4 c -0.039,0 -0.07,0.031 -0.07,0.07 v 6 c 0,0.039 0.031,0.07 0.07,0.07 h 2.93 c 0.07,0 0,-0.07 0,0 v 42.911 c 0,0.019 0.009,-0.016 0,0 l -0.683,1.184 c -0.013,0.022 -0.013,0.048 0,0.07 l 0.692,1.2 c 0.013,0.022 0.036,0.035 0.061,0.035 h 1.5 c 0.039,0 0.07,-0.031 0.07,-0.07 v -17.4 c 0,-0.119 0.031,-0.237 0.091,-0.34 0.06,-0.103 0.146,-0.189 0.249,-0.249 0.103,-0.06 0.221,-0.091 0.34,-0.091 0.119,0 0.237,0.031 0.34,0.091 0.103,0.06 0.189,0.146 0.249,0.249 0.06,0.103 0.091,0.221 0.091,0.34 V 68 c 0,0.07 0.07,0 0,0 H 10.4 c -0.039,0 -0.07,0.031 -0.07,0.07 v 3 c 0,0.039 0.031,0.07 0.07,0.07 h 3"
       stroke="#000000"
       stroke-width="0.14"
       id="path1100" />
  </g>
  <g
     id="p-5"
     style="fill:none;stroke-linecap:round;stroke-linejoin:round"
     transform="translate(0,12.170835)">
    <text
       transform="translate(113.54,202.56)"
       style="font-style:normal;font-weight:normal;font-family:sans-serif;fill:#ff0000"
       font-size="4px"
       text-anchor="middle"
       dominant-baseline="hanging"
       id="text1103">left side</text>
    <path
       d="m 86.04,229.06 h 6.5 c 0.039,0 0.07,-0.031 0.07,-0.07 v -2.93 c 0,-0.07 -0.07,0 0,0 h 5.86 c 0.07,0 0,-0.07 0,0 v 2.93 c 0,0.039 0.031,0.07 0.07,0.07 h 6 c 0.039,0 0.07,-0.031 0.07,-0.07 v -2.93 c 0,-0.07 -0.07,0 0,0 h 5.86 c 0.07,0 0,-0.07 0,0 v 2.93 c 0,0.039 0.031,0.07 0.07,0.07 h 6 c 0.039,0 0.07,-0.031 0.07,-0.07 v -2.93 c 0,-0.07 -0.07,0 0,0 h 5.86 c 0.07,0 0,-0.07 0,0 v 2.93 c 0,0.039 0.031,0.07 0.07,0.07 h 6 c 0.039,0 0.07,-0.031 0.07,-0.07 v -2.93 c 0,-0.07 -0.07,0 0,0 h 5.86 c 0.07,0 0,-0.07 0,0 v 2.93 c 0,0.039 0.031,0.07 0.07,0.07 h 6.5 c 0.039,0 0.07,-0.031 0.07,-0.07 v -6.43 c 0,-0.07 -0.07,0 0,0 h 2.93 c 0.039,0 0.07,-0.031 0.07,-0.07 v -6 c 0,-0.039 -0.031,-0.07 -0.07,-0.07 h -2.93 c -0.07,0 0,0.07 0,0 v -5.86 c 0,-0.07 -0.07,0 0,0 h 2.93 c 0.039,0 0.07,-0.031 0.07,-0.07 v -6 c 0,-0.039 -0.031,-0.07 -0.07,-0.07 h -2.93 c -0.07,0 0,0.07 0,0 v -5.86 c 0,-0.07 -0.07,0 0,0 h 2.93 c 0.039,0 0.07,-0.031 0.07,-0.07 v -6 c 0,-0.039 -0.031,-0.07 -0.07,-0.07 h -2.93 c -0.07,0 0,0.07 0,0 v -6.43 0.075 c 0,-0.039 -0.031,-0.07 -0.07,-0.07 h -0.08 c -0.07,0 0,0.07 0,0 v -3.01 c 0,-0.07 -0.07,0 0,0 h 3.08 c 0.039,0 0.07,-0.031 0.07,-0.07 v -2.925 c 0,-0.039 -0.031,-0.07 -0.07,-0.07 h -40.5 c -0.188,0 -0.372,0.049 -0.535,0.143 -0.163,0.094 -0.298,0.229 -0.392,0.392 -0.094,0.163 -0.143,0.347 -0.143,0.535 v 5.005 c 0,0.07 0.07,0 0,0 H 88.96 c -0.07,0 0,0.07 0,0 v -3.01 c 0,-0.07 -0.07,0 0,0 h 4.93 c 0.188,0 0.372,-0.049 0.535,-0.143 0.163,-0.094 0.298,-0.229 0.392,-0.392 0.094,-0.163 0.143,-0.347 0.143,-0.535 v -0.925 c 0,-0.188 -0.049,-0.372 -0.143,-0.535 -0.094,-0.163 -0.229,-0.298 -0.392,-0.392 -0.163,-0.094 -0.347,-0.143 -0.535,-0.143 h -7.85 c -0.039,0 -0.07,0.031 -0.07,0.07 v 6 6.43 c 0,0.07 0.07,0 0,0 h -2.93 c -0.039,0 -0.07,0.031 -0.07,0.07 v 6 c 0,0.039 0.031,0.07 0.07,0.07 h 2.93 c 0.07,0 0,-0.07 0,0 v 5.86 c 0,0.07 0.07,0 0,0 h -2.93 c -0.039,0 -0.07,0.031 -0.07,0.07 v 6 c 0,0.039 0.031,0.07 0.07,0.07 h 2.93 c 0.07,0 0,-0.07 0,0 v 5.86 c 0,0.07 0.07,0 0,0 h -2.93 c -0.039,0 -0.07,0.031 -0.07,0.07 v 6 c 0,0.039 0.031,0.07 0.07,0.07 h 2.93 c 0.07,0 0,-0.07 0,0 v 6.43 c 0,0.039 0.031,0.07 0.07,0.07"
       stroke="#000000"
       stroke-width="0.14"
       id="path1105" />
    <path
       d="m 139.24,182.91 h 0.53 c 0.07,0 0,-0.07 0,0 v 3.16 c 0,0.07 0.07,0 0,0 h -1.06 c -0.07,0 0,0.07 0,0 v -3.16 c 0,-0.07 -0.07,0 0,0 z"
       stroke="#0000ff"
       stroke-width="0.14"
       id="path1107" />
  </g>
  <g
     id="p-6"
     style="fill:none;stroke-linecap:round;stroke-linejoin:round"
     transform="translate(0,12.170835)">
    <text
       transform="translate(113.54,151.92)"
       style="font-style:normal;font-weight:normal;font-family:sans-serif;fill:#ff0000"
       font-size="4px"
       text-anchor="middle"
       dominant-baseline="hanging"
       id="text1110">right side</text>
    <path
       d="m 86.04,178.42 h 6.5 c 0.039,0 0.07,-0.031 0.07,-0.07 v -2.93 c 0,-0.07 -0.07,0 0,0 h 5.86 c 0.07,0 0,-0.07 0,0 v 2.93 c 0,0.039 0.031,0.07 0.07,0.07 h 6 c 0.039,0 0.07,-0.031 0.07,-0.07 v -2.93 c 0,-0.07 -0.07,0 0,0 h 5.86 c 0.07,0 0,-0.07 0,0 v 2.93 c 0,0.039 0.031,0.07 0.07,0.07 h 6 c 0.039,0 0.07,-0.031 0.07,-0.07 v -2.93 c 0,-0.07 -0.07,0 0,0 h 5.86 c 0.07,0 0,-0.07 0,0 v 2.93 c 0,0.039 0.031,0.07 0.07,0.07 h 6 c 0.039,0 0.07,-0.031 0.07,-0.07 v -2.93 c 0,-0.07 -0.07,0 0,0 h 5.86 c 0.07,0 0,-0.07 0,0 v 2.93 c 0,0.039 0.031,0.07 0.07,0.07 h 6.5 c 0.039,0 0.07,-0.031 0.07,-0.07 v -6.43 c 0,-0.07 -0.07,0 0,0 h 2.93 c 0.039,0 0.07,-0.031 0.07,-0.07 v -6 c 0,-0.039 -0.031,-0.07 -0.07,-0.07 h -2.93 c -0.07,0 0,0.07 0,0 v -5.86 c 0,-0.07 -0.07,0 0,0 h 2.93 c 0.039,0 0.07,-0.031 0.07,-0.07 v -6 c 0,-0.039 -0.031,-0.07 -0.07,-0.07 h -2.93 c -0.07,0 0,0.07 0,0 v -5.86 c 0,-0.07 -0.07,0 0,0 h 2.93 c 0.039,0 0.07,-0.031 0.07,-0.07 v -6 c 0,-0.039 -0.031,-0.07 -0.07,-0.07 h -2.93 c -0.07,0 0,0.07 0,0 v -6.43 -6 c 0,-0.039 -0.031,-0.07 -0.07,-0.07 h -7.85 c -0.188,0 -0.372,0.049 -0.535,0.143 -0.163,0.094 -0.298,0.229 -0.392,0.392 -0.094,0.163 -0.143,0.347 -0.143,0.535 v 0.925 c 0,0.188 0.049,0.372 0.143,0.535 0.094,0.163 0.229,0.298 0.392,0.392 0.163,0.094 0.347,0.143 0.535,0.143 h 4.93 c 0.07,0 0,-0.07 0,0 v 3.01 c 0,0.07 0.07,0 0,0 h -13.51 c -0.07,0 0,0.07 0,0 v -5.005 c 0,-0.188 -0.049,-0.372 -0.143,-0.535 -0.094,-0.163 -0.229,-0.298 -0.392,-0.392 -0.163,-0.094 -0.347,-0.143 -0.535,-0.143 h -40.5 c -0.039,0 -0.07,0.031 -0.07,0.07 v 2.925 c 0,0.039 0.031,0.07 0.07,0.07 h 3.08 c 0.07,0 0,-0.07 0,0 v 3.01 c 0,0.07 0.07,0 0,0 h -0.08 c -0.039,0 -0.07,0.031 -0.07,0.07 v -0.075 6.43 c 0,0.07 0.07,0 0,0 h -2.93 c -0.039,0 -0.07,0.031 -0.07,0.07 v 6 c 0,0.039 0.031,0.07 0.07,0.07 h 2.93 c 0.07,0 0,-0.07 0,0 v 5.86 c 0,0.07 0.07,0 0,0 h -2.93 c -0.039,0 -0.07,0.031 -0.07,0.07 v 6 c 0,0.039 0.031,0.07 0.07,0.07 h 2.93 c 0.07,0 0,-0.07 0,0 v 5.86 c 0,0.07 0.07,0 0,0 h -2.93 c -0.039,0 -0.07,0.031 -0.07,0.07 v 6 c 0,0.039 0.031,0.07 0.07,0.07 h 2.93 c 0.07,0 0,-0.07 0,0 v 6.43 c 0,0.039 0.031,0.07 0.07,0.07"
       stroke="#000000"
       stroke-width="0.14"
       id="path1112" />
    <path
       d="m 87.84,132.27 h 0.53 c 0.07,0 0,-0.07 0,0 v 3.16 c 0,0.07 0.07,0 0,0 h -1.06 c -0.07,0 0,0.07 0,0 v -3.16 c 0,-0.07 -0.07,0 0,0 z"
       stroke="#0000ff"
       stroke-width="0.14"
       id="path1114" />
  </g>
  <g
     id="g4280"
     transform="translate(-80.792094,-11.759035)">
    <text
       style="font-style:normal;font-weight:normal;font-family:sans-serif;fill:#ff0000;stroke-linecap:round;stroke-linejoin:round"
       font-size="4px"
       text-anchor="middle"
       dominant-baseline="hanging"
       id="text1117"
       x="113.54"
       y="104.28">inner y 1</text>
    <path
       id="path1119"
       style="fill:none;stroke:#000000;stroke-linecap:round;stroke-linejoin:round"
       d="m 325.19141,319.89844 c -0.14741,0 -0.26563,0.11822 -0.26563,0.26562 v 18.63282 h -11.07422 c -0.1474,0 -0.26367,0.11627 -0.26367,0.26367 v 22.67773 c 0,0.1474 0.11627,0.26563 0.26367,0.26563 h 11.07422 v 22.14648 h -11.07422 c -0.1474,0 -0.26367,0.11822 -0.26367,0.26563 v 22.67773 c 0,0.1474 0.11627,0.26367 0.26367,0.26367 h 11.07422 v 22.14844 h -11.07422 c -0.1474,0 -0.26367,0.11627 -0.26367,0.26367 v 22.67774 c 0,0.1474 0.11627,0.26367 0.26367,0.26367 h 11.07422 v 18.63476 c 0,0.0125 13.02938,0.0112 15.74805,0.0215 v -57.38281 h 49.13281 v 57.45117 c 44.86078,0.0207 97.1906,0.0179 126.02539,-0.0273 v -18.39453 h 17.49805 V 452.711 h 11.07226 c 0.14741,0 0.26563,-0.11627 0.26563,-0.26367 v -22.67774 c 0,-0.1474 -0.11822,-0.26367 -0.26563,-0.26367 h -11.07226 v -22.14844 h 11.07226 c 0.14741,0 0.26563,-0.11627 0.26563,-0.26367 v -22.67773 c 0,-0.14741 -0.11822,-0.26563 -0.26563,-0.26563 h -11.07226 v -22.14648 h 11.07226 c 0.14741,0 0.26563,-0.11823 0.26563,-0.26563 v -22.67773 c 0,-0.1474 -0.11822,-0.26368 -0.26563,-0.26367 h -11.07226 v -18.63282 c 0,-0.1474 -0.11823,-0.26562 -0.26563,-0.26562 z"
       transform="scale(0.26458333)" />
  </g>
  <g
     id="g4057"
     transform="translate(162.43105,-75.100297)">
    <path
       d="m -65.52466,118.38064 h -2.93 c -0.07,0 0,0.07 0,0 v -2.86 c 0,-0.07 -0.07,0 0,0 h 5.86 c 0.07,0 0,-0.07 0,0 v 2.86 c 0,0.07 0.07,0 0,0 z"
       stroke="#0000ff"
       stroke-width="0.14"
       id="path1085-6"
       style="fill:none;stroke:#ff0000;stroke-linecap:round;stroke-linejoin:round" />
    <path
       d="m -53.52466,118.38064 h -2.93 c -0.07,0 0,0.07 0,0 v -2.86 c 0,-0.07 -0.07,0 0,0 h 5.86 c 0.07,0 0,-0.07 0,0 v 2.86 c 0,0.07 0.07,0 0,0 z"
       stroke="#0000ff"
       stroke-width="0.14"
       id="path1087-7"
       style="fill:none;stroke:#ff0000;stroke-linecap:round;stroke-linejoin:round" />
    <path
       d="m -41.52466,118.38064 h -2.93 c -0.07,0 0,0.07 0,0 v -2.86 c 0,-0.07 -0.07,0 0,0 h 5.86 c 0.07,0 0,-0.07 0,0 v 2.86 c 0,0.07 0.07,0 0,0 z"
       stroke="#0000ff"
       stroke-width="0.14"
       id="path1089-5"
       style="fill:none;stroke:#ff0000;stroke-linecap:round;stroke-linejoin:round" />
    <path
       d="m -29.52466,118.38064 h -2.93 c -0.07,0 0,0.07 0,0 v -2.86 c 0,-0.07 -0.07,0 0,0 h 5.86 c 0.07,0 0,-0.07 0,0 v 2.86 c 0,0.07 0.07,0 0,0 z"
       stroke="#0000ff"
       stroke-width="0.14"
       id="path1091-3"
       style="fill:none;stroke:#ff0000;stroke-linecap:round;stroke-linejoin:round" />
    <text
       transform="rotate(90)"
       style="font-style:normal;font-weight:normal;font-family:sans-serif;fill:#ff0000;stroke-linecap:round;stroke-linejoin:round"
       font-size="4px"
       text-anchor="middle"
       dominant-baseline="hanging"
       id="text1093-5"
       x="112.95064"
       y="45.594662">bottom</text>
    <path
       d="m -75.09466,80.450638 v 5.43 c 0,0.07 0.07,0 0,0 h -2.93 c -0.039,0 -0.07,0.031 -0.07,0.07 v 6 c 0,0.039 0.031,0.07 0.07,0.07 h 2.93 c 0.07,0 0,-0.07 0,0 v 5.86 c 0,0.07 0.07,0 0,0 h -2.93 c -0.039,0 -0.07,0.031 -0.07,0.07 v 6.000002 c 0,0.039 0.031,0.07 0.07,0.07 h 2.93 c 0.07,0 0,-0.07 0,0 v 5.86 c 0,0.07 0.07,0 0,0 h -2.93 c -0.039,0 -0.07,0.031 -0.07,0.07 v 6 c 0,0.039 0.031,0.07 0.07,0.07 h 2.93 c 0.07,0 0,-0.07 0,0 v 5.86 c 0,0.07 0.07,0 0,0 h -2.93 c -0.039,0 -0.07,0.031 -0.07,0.07 v 6 c 0,0.039 0.031,0.07 0.07,0.07 h 2.93 c 0.07,0 0,-0.07 0,0 v 5.86 c 0,0.07 0.07,0 0,0 h -2.93 c -0.039,0 -0.07,0.031 -0.07,0.07 v 6 c 0,0.039 0.031,0.07 0.07,0.07 h 2.93 c 0.07,0 0,-0.07 0,0 v 5.43 c 0,0.039 0.031,0.07 0.07,0.07 h 6.43 c 0.07,0 0,-0.07 0,0 v 2.93 c 0,0.039 0.031,0.07 0.07,0.07 h 6 c 0.039,0 0.07,-0.031 0.07,-0.07 v -2.93 c 0,-0.07 -0.07,0 0,0 h 5.86 c 0.07,0 0,-0.07 0,0 v 2.93 c 0,0.039 0.031,0.07 0.07,0.07 h 6 c 0.039,0 0.07,-0.031 0.07,-0.07 v -2.93 c 0,-0.07 -0.07,0 0,0 h 5.86 c 0.07,0 0,-0.07 0,0 v 2.93 c 0,0.039 0.031,0.07 0.07,0.07 h 6 c 0.039,0 0.07,-0.031 0.07,-0.07 v -2.93 c 0,-0.07 -0.07,0 0,0 h 5.86 c 0.07,0 0,-0.07 0,0 v 2.93 c 0,0.039 0.031,0.07 0.07,0.07 h 6 c 0.039,0 0.07,-0.031 0.07,-0.07 v -2.93 c 0,-0.07 -0.07,0 0,0 h 6.43 c 0.039,0 0.07,-0.031 0.07,-0.07 v -5.43 c 0,-0.07 -0.07,0 0,0 h 2.93 c 0.039,0 0.07,-0.031 0.07,-0.07 v -6 c 0,-0.039 -0.031,-0.07 -0.07,-0.07 h -2.93 c -0.07,0 0,0.07 0,0 v -5.86 c 0,-0.07 -0.07,0 0,0 h 2.93 c 0.039,0 0.07,-0.031 0.07,-0.07 v -6 c 0,-0.039 -0.031,-0.07 -0.07,-0.07 h -2.93 c -0.07,0 0,0.07 0,0 v -5.86 c 0,-0.07 -0.07,0 0,0 h 2.93 c 0.039,0 0.07,-0.031 0.07,-0.07 v -6 c 0,-0.039 -0.031,-0.07 -0.07,-0.07 h -2.93 c -0.07,0 0,0.07 0,0 v -5.86 c 0,-0.07 -0.07,0 0,0 h 2.93 c 0.039,0 0.07,-0.031 0.07,-0.07 v -6.000002 c 0,-0.039 -0.031,-0.07 -0.07,-0.07 h -2.93 c -0.07,0 0,0.07 0,0 v -5.86 c 0,-0.07 -0.07,0 0,0 h 2.93 c 0.039,0 0.07,-0.031 0.07,-0.07 v -6 c 0,-0.039 -0.031,-0.07 -0.07,-0.07 h -2.93 c -0.07,0 0,0.07 0,0 v -5.43 c 0,-0.039 -0.031,-0.07 -0.07,-0.07 h -6.43 c -0.07,0 0,0.07 0,0 v -2.93 c 0,-0.039 -0.031,-0.07 -0.07,-0.07 h -6 c -0.039,0 -0.07,0.031 -0.07,0.07 v 2.93 c 0,0.07 0.07,0 0,0 h -5.86 c -0.07,0 0,0.07 0,0 v -2.93 c 0,-0.039 -0.031,-0.07 -0.07,-0.07 h -6 c -0.039,0 -0.07,0.031 -0.07,0.07 v 2.93 c 0,0.07 0.07,0 0,0 h -5.86 c -0.07,0 0,0.07 0,0 v -2.93 c 0,-0.039 -0.031,-0.07 -0.07,-0.07 h -6 c -0.039,0 -0.07,0.031 -0.07,0.07 v 2.93 c 0,0.07 0.07,0 0,0 h -5.86 c -0.07,0 0,0.07 0,0 v -2.93 c 0,-0.039 -0.031,-0.07 -0.07,-0.07 h -6 c -0.039,0 -0.07,0.031 -0.07,0.07 v 2.93 c 0,0.07 0.07,0 0,0 h -6.43 c -0.039,0 -0.07,0.031 -0.07,0.07"
       stroke="#000000"
       stroke-width="0.14"
       id="path1095-6"
       style="fill:none;stroke-linecap:round;stroke-linejoin:round" />
    <g
       id="g2258"
       transform="translate(-0.83709475)">
      <circle
         style="fill:none;stroke:#0000ff;stroke-width:0.3"
         id="path2153"
         cx="-61.710613"
         cy="95.407135"
         r="3" />
      <circle
         style="fill:none;stroke:#0000ff;stroke-width:0.3"
         id="path2155"
         cx="-32.164516"
         cy="95.407135"
         r="3.5" />
    </g>
    <rect
       style="fill:none;stroke:#0000ff;stroke-width:0.3"
       id="rect2282"
       width="24"
       height="9"
       x="-59.362282"
       y="125.45858" />
  </g>
  <rect
     style="fill:none;stroke:#0000ff;stroke-width:0.3"
     id="rect2282-2"
     width="24.5"
     height="9.5"
     x="74.13623"
     y="112.42104" />
  <g
     id="g2414"
     transform="translate(196.17723,-96.709269)">
    <rect
       style="fill:none;stroke:#000000;stroke-width:0.3"
       id="rect2284"
       width="41.099998"
       height="15.2"
       x="-130.06696"
       y="173.13518" />
    <rect
       style="fill:none;stroke:#0000ff;stroke-width:0.300001"
       id="rect2286"
       width="38.100002"
       height="12.2"
       x="-128.56696"
       y="174.63518" />
  </g>
  <g
     id="g2619"
     transform="translate(131.45927,-81.224263)">
    <rect
       style="fill:none;stroke:#000000;stroke-width:0.3"
       id="rect2284-9"
       width="41.099998"
       height="15.2"
       x="-65.651192"
       y="175.64764" />
    <rect
       style="fill:none;stroke:#0000ff;stroke-width:0.300001"
       id="rect2286-1"
       width="5"
       height="12.2"
       x="-64.151192"
       y="177.14764" />
  </g>
  <rect
     style="fill:none;stroke:#000000;stroke-width:0.3"
     id="rect2284-7"
     width="44.099998"
     height="18.199999"
     x="108.68364"
     y="97.167191" />
  <rect
     style="fill:none;stroke:#0000ff;stroke-width:0.300001"
     id="rect2286-0"
     width="38.100002"
     height="12.2"
     x="111.68364"
     y="100.16718" />
  <rect
     style="fill:none;stroke:#000000;stroke-width:0.3"
     id="rect2284-7-0"
     width="44.099998"
     height="18.199999"
     x="108.74963"
     y="75.995758" />
  <rect
     style="fill:none;stroke:#0000ff;stroke-width:0.300001"
     id="rect2286-0-6"
     width="38.100002"
     height="12.2"
     x="111.74963"
     y="78.995758" />
  <g
     id="g4573"
     transform="translate(201.83329,-42.569434)">
    <rect
       style="fill:none;stroke:#000000;stroke-width:0.3"
       id="rect2284-9-3"
       width="44.099998"
       height="18.199999"
       x="-93.053177"
       y="161.36414" />
    <rect
       style="fill:none;stroke:#0000ff;stroke-width:0.300001"
       id="rect2286-1-6"
       width="5"
       height="12.2"
       x="-90.053001"
       y="164.36414" />
  </g>
  <rect
     style="fill:none;stroke:#0000ff;stroke-width:0.3"
     id="rect3038"
     width="8"
     height="3"
     x="109.01083"
     y="145.20436" />
</svg>
