<?xml version="1.0" encoding="UTF-8" standalone="no"?>
<svg
   width="154.11mm"
   height="250.70mm"
   viewBox="0.0 0.0 154.11 250.70"
   version="1.1"
   id="svg1122"
   sodipodi:docname="teabot_box_v2.svg"
   inkscape:version="1.1.2 (0a00cf5339, 2022-02-04)"
   xmlns:inkscape="http://www.inkscape.org/namespaces/inkscape"
   xmlns:sodipodi="http://sodipodi.sourceforge.net/DTD/sodipodi-0.dtd"
   xmlns="http://www.w3.org/2000/svg"
   xmlns:svg="http://www.w3.org/2000/svg"
   xmlns:rdf="http://www.w3.org/1999/02/22-rdf-syntax-ns#"
   xmlns:cc="http://creativecommons.org/ns#"
   xmlns:dc="http://purl.org/dc/elements/1.1/">
  <defs
     id="defs1126" />
  <sodipodi:namedview
     id="namedview1124"
     pagecolor="#ffffff"
     bordercolor="#666666"
     borderopacity="1.0"
     inkscape:pageshadow="2"
     inkscape:pageopacity="0.0"
     inkscape:pagecheckerboard="0"
     inkscape:document-units="mm"
     showgrid="false"
     inkscape:zoom="1.9260935"
     inkscape:cx="98.645263"
     inkscape:cy="436.37549"
     inkscape:window-width="3766"
     inkscape:window-height="2096"
     inkscape:window-x="0"
     inkscape:window-y="0"
     inkscape:window-maximized="1"
     inkscape:current-layer="svg1122" />
  <!--
TypeTray - Type tray - allows only continuous walls

Created with Boxes.py (https://festi.info/boxes.py)
Creation date: 2023-05-13 13:12:59
Command line (remove spaces between dashes): boxes TypeTray - -sx=35:27 - -sy=55 - -h=40 - -outside=0 - -bottom_edge=F - -top_edge=L - -burn=0.07
Url: http://www.festi.info/boxes.py/TypeTray?FingerJoint_angle=90.0&FingerJoint_style=rectangular&FingerJoint_surroundingspaces=0.5&FingerJoint_bottom_lip=0.0&FingerJoint_edge_width=1.0&FingerJoint_extra_length=0.0&FingerJoint_finger=2.0&FingerJoint_play=0.0&FingerJoint_space=2.0&FingerJoint_width=1.0&Stackable_angle=60&Stackable_bottom_stabilizers=0.0&Stackable_height=2.0&Stackable_holedistance=1.0&Stackable_width=4.0&Hinge_grip_percentage=0&Hinge_outset=0&Hinge_pinwidth=0.5&Hinge_style=outset&Hinge_axle=2.0&Hinge_grip_length=0&Hinge_hingestrength=1&CabinetHinge_bore=3.2&CabinetHinge_eyes_per_hinge=5&CabinetHinge_hinges=2&CabinetHinge_style=inside&CabinetHinge_eye=1.5&CabinetHinge_play=0.05&CabinetHinge_spacing=2.0&SlideOnLid_angle=90.0&SlideOnLid_hole_width=0&SlideOnLid_second_pin=0&SlideOnLid_second_pin=1&SlideOnLid_spring=both&SlideOnLid_style=rectangular&SlideOnLid_surroundingspaces=2.0&SlideOnLid_bottom_lip=0.0&SlideOnLid_edge_width=1.0&SlideOnLid_extra_length=0.0&SlideOnLid_finger=3.0&SlideOnLid_play=0.05&SlideOnLid_space=2.0&SlideOnLid_width=1.0&Click_angle=5.0&Click_bottom_radius=0.1&Click_depth=3.0&RoundedTriangleEdge_height=50.0&RoundedTriangleEdge_r_hole=2.0&RoundedTriangleEdge_radius=30.0&RoundedTriangleEdge_outset=1.0&Mounting_d_head=6.5&Mounting_d_shaft=3.0&Mounting_margin=0.125&Mounting_num=2&Mounting_side=back&Mounting_style=straight+edge%2C+within&HandleEdge_height=20.0&HandleEdge_hole_height=75.0&HandleEdge_hole_width=40%3A40&HandleEdge_on_sides=0&HandleEdge_on_sides=1&HandleEdge_radius=10.0&HandleEdge_outset=1.0&Lid_handle=none&Lid_style=none&Lid_handle_height=8.0&Lid_height=4.0&Lid_play=0.1&sx=35%3A27&sy=55&h=40&hi=0.0&outside=0&bottom_edge=F&top_edge=L&back_height=0.0&radius=0.0&gripheight=30&gripwidth=0&handle=0&thickness=3.0&format=svg&tabs=0.0&qr_code=0&debug=0&labels=0&labels=1&reference=100&inner_corners=loop&burn=0.07&language=de&render=1
Url short: http://www.festi.info/boxes.py/TypeTray?sx=35%3A27&sy=55&h=40&outside=0&bottom_edge=F&top_edge=L&burn=0.07
SettingsUrl: http://www.festi.info/boxes.py/TypeTray?FingerJoint_angle=90.0&FingerJoint_style=rectangular&FingerJoint_surroundingspaces=0.5&FingerJoint_bottom_lip=0.0&FingerJoint_edge_width=1.0&FingerJoint_extra_length=0.0&FingerJoint_finger=2.0&FingerJoint_play=0.0&FingerJoint_space=2.0&FingerJoint_width=1.0&Stackable_angle=60&Stackable_bottom_stabilizers=0.0&Stackable_height=2.0&Stackable_holedistance=1.0&Stackable_width=4.0&Hinge_grip_percentage=0&Hinge_outset=0&Hinge_pinwidth=0.5&Hinge_style=outset&Hinge_axle=2.0&Hinge_grip_length=0&Hinge_hingestrength=1&CabinetHinge_bore=3.2&CabinetHinge_eyes_per_hinge=5&CabinetHinge_hinges=2&CabinetHinge_style=inside&CabinetHinge_eye=1.5&CabinetHinge_play=0.05&CabinetHinge_spacing=2.0&SlideOnLid_angle=90.0&SlideOnLid_hole_width=0&SlideOnLid_second_pin=0&SlideOnLid_second_pin=1&SlideOnLid_spring=both&SlideOnLid_style=rectangular&SlideOnLid_surroundingspaces=2.0&SlideOnLid_bottom_lip=0.0&SlideOnLid_edge_width=1.0&SlideOnLid_extra_length=0.0&SlideOnLid_finger=3.0&SlideOnLid_play=0.05&SlideOnLid_space=2.0&SlideOnLid_width=1.0&Click_angle=5.0&Click_bottom_radius=0.1&Click_depth=3.0&RoundedTriangleEdge_height=50.0&RoundedTriangleEdge_r_hole=2.0&RoundedTriangleEdge_radius=30.0&RoundedTriangleEdge_outset=1.0&Mounting_d_head=6.5&Mounting_d_shaft=3.0&Mounting_margin=0.125&Mounting_num=2&Mounting_side=back&Mounting_style=straight+edge%2C+within&HandleEdge_height=20.0&HandleEdge_hole_height=75.0&HandleEdge_hole_width=40%3A40&HandleEdge_on_sides=0&HandleEdge_on_sides=1&HandleEdge_radius=10.0&HandleEdge_outset=1.0&Lid_handle=none&Lid_style=none&Lid_handle_height=8.0&Lid_height=4.0&Lid_play=0.1&sx=35%3A27&sy=55&h=40&hi=0.0&outside=0&bottom_edge=F&top_edge=L&back_height=0.0&radius=0.0&gripheight=30&gripwidth=0&handle=0&thickness=3.0&format=svg&tabs=0.0&qr_code=0&debug=0&labels=0&labels=1&reference=100&inner_corners=loop&burn=0.07&language=de
SettingsUrl short: http://www.festi.info/boxes.py/TypeTray?sx=35%3A27&sy=55&h=40&outside=0&bottom_edge=F&top_edge=L&burn=0.07
-->
  <title
     id="title1048">TypeTray</title>
  <metadata
     id="metadata1050">
    <rdf:RDF>
      <cc:Work>
        <dc:title>Tray - TypeTray</dc:title>
        <dc:date>2023-05-13 13:12:59</dc:date>
        <dc:source>http://www.festi.info/boxes.py/TypeTray?FingerJoint_angle=90.0&amp;FingerJoint_style=rectangular&amp;FingerJoint_surroundingspaces=0.5&amp;FingerJoint_bottom_lip=0.0&amp;FingerJoint_edge_width=1.0&amp;FingerJoint_extra_length=0.0&amp;FingerJoint_finger=2.0&amp;FingerJoint_play=0.0&amp;FingerJoint_space=2.0&amp;FingerJoint_width=1.0&amp;Stackable_angle=60&amp;Stackable_bottom_stabilizers=0.0&amp;Stackable_height=2.0&amp;Stackable_holedistance=1.0&amp;Stackable_width=4.0&amp;Hinge_grip_percentage=0&amp;Hinge_outset=0&amp;Hinge_pinwidth=0.5&amp;Hinge_style=outset&amp;Hinge_axle=2.0&amp;Hinge_grip_length=0&amp;Hinge_hingestrength=1&amp;CabinetHinge_bore=3.2&amp;CabinetHinge_eyes_per_hinge=5&amp;CabinetHinge_hinges=2&amp;CabinetHinge_style=inside&amp;CabinetHinge_eye=1.5&amp;CabinetHinge_play=0.05&amp;CabinetHinge_spacing=2.0&amp;SlideOnLid_angle=90.0&amp;SlideOnLid_hole_width=0&amp;SlideOnLid_second_pin=0&amp;SlideOnLid_second_pin=1&amp;SlideOnLid_spring=both&amp;SlideOnLid_style=rectangular&amp;SlideOnLid_surroundingspaces=2.0&amp;SlideOnLid_bottom_lip=0.0&amp;SlideOnLid_edge_width=1.0&amp;SlideOnLid_extra_length=0.0&amp;SlideOnLid_finger=3.0&amp;SlideOnLid_play=0.05&amp;SlideOnLid_space=2.0&amp;SlideOnLid_width=1.0&amp;Click_angle=5.0&amp;Click_bottom_radius=0.1&amp;Click_depth=3.0&amp;RoundedTriangleEdge_height=50.0&amp;RoundedTriangleEdge_r_hole=2.0&amp;RoundedTriangleEdge_radius=30.0&amp;RoundedTriangleEdge_outset=1.0&amp;Mounting_d_head=6.5&amp;Mounting_d_shaft=3.0&amp;Mounting_margin=0.125&amp;Mounting_num=2&amp;Mounting_side=back&amp;Mounting_style=straight+edge%2C+within&amp;HandleEdge_height=20.0&amp;HandleEdge_hole_height=75.0&amp;HandleEdge_hole_width=40%3A40&amp;HandleEdge_on_sides=0&amp;HandleEdge_on_sides=1&amp;HandleEdge_radius=10.0&amp;HandleEdge_outset=1.0&amp;Lid_handle=none&amp;Lid_style=none&amp;Lid_handle_height=8.0&amp;Lid_height=4.0&amp;Lid_play=0.1&amp;sx=35%3A27&amp;sy=55&amp;h=40&amp;hi=0.0&amp;outside=0&amp;bottom_edge=F&amp;top_edge=L&amp;back_height=0.0&amp;radius=0.0&amp;gripheight=30&amp;gripwidth=0&amp;handle=0&amp;thickness=3.0&amp;format=svg&amp;tabs=0.0&amp;qr_code=0&amp;debug=0&amp;labels=0&amp;labels=1&amp;reference=100&amp;inner_corners=loop&amp;burn=0.07&amp;language=de&amp;render=1</dc:source>
        <dc:source>http://www.festi.info/boxes.py/TypeTray?sx=35%3A27&amp;sy=55&amp;h=40&amp;outside=0&amp;bottom_edge=F&amp;top_edge=L&amp;burn=0.07</dc:source>
        <dc:description>Type tray - allows only continuous walls

Created with Boxes.py (https://festi.info/boxes.py)
Command line: boxes TypeTray --FingerJoint_angle=90.0 --FingerJoint_style=rectangular --FingerJoint_surroundingspaces=0.5 --FingerJoint_bottom_lip=0.0 --FingerJoint_edge_width=1.0 --FingerJoint_extra_length=0.0 --FingerJoint_finger=2.0 --FingerJoint_play=0.0 --FingerJoint_space=2.0 --FingerJoint_width=1.0 --Stackable_angle=60 --Stackable_bottom_stabilizers=0.0 --Stackable_height=2.0 --Stackable_holedistance=1.0 --Stackable_width=4.0 --Hinge_grip_percentage=0 --Hinge_outset=0 --Hinge_pinwidth=0.5 --Hinge_style=outset --Hinge_axle=2.0 --Hinge_grip_length=0 --Hinge_hingestrength=1 --CabinetHinge_bore=3.2 --CabinetHinge_eyes_per_hinge=5 --CabinetHinge_hinges=2 --CabinetHinge_style=inside --CabinetHinge_eye=1.5 --CabinetHinge_play=0.05 --CabinetHinge_spacing=2.0 --SlideOnLid_angle=90.0 --SlideOnLid_hole_width=0 --SlideOnLid_second_pin=0 --SlideOnLid_second_pin=1 --SlideOnLid_spring=both --SlideOnLid_style=rectangular --SlideOnLid_surroundingspaces=2.0 --SlideOnLid_bottom_lip=0.0 --SlideOnLid_edge_width=1.0 --SlideOnLid_extra_length=0.0 --SlideOnLid_finger=3.0 --SlideOnLid_play=0.05 --SlideOnLid_space=2.0 --SlideOnLid_width=1.0 --Click_angle=5.0 --Click_bottom_radius=0.1 --Click_depth=3.0 --RoundedTriangleEdge_height=50.0 --RoundedTriangleEdge_r_hole=2.0 --RoundedTriangleEdge_radius=30.0 --RoundedTriangleEdge_outset=1.0 --Mounting_d_head=6.5 --Mounting_d_shaft=3.0 --Mounting_margin=0.125 --Mounting_num=2 --Mounting_side=back '--Mounting_style=straight edge, within' --HandleEdge_height=20.0 --HandleEdge_hole_height=75.0 --HandleEdge_hole_width=40:40 --HandleEdge_on_sides=0 --HandleEdge_on_sides=1 --HandleEdge_radius=10.0 --HandleEdge_outset=1.0 --Lid_handle=none --Lid_style=none --Lid_handle_height=8.0 --Lid_height=4.0 --Lid_play=0.1 --sx=35:27 --sy=55 --h=40 --hi=0.0 --outside=0 --bottom_edge=F --top_edge=L --back_height=0.0 --radius=0.0 --gripheight=30 --gripwidth=0 --handle=0 --thickness=3.0 --format=svg --tabs=0.0 --qr_code=0 --debug=0 --labels=0 --labels=1 --reference=100 --inner_corners=loop --burn=0.07
Command line short: boxes TypeTray --sx=35:27 --sy=55 --h=40 --outside=0 --bottom_edge=F --top_edge=L --burn=0.07
Url: http://www.festi.info/boxes.py/TypeTray?FingerJoint_angle=90.0&amp;FingerJoint_style=rectangular&amp;FingerJoint_surroundingspaces=0.5&amp;FingerJoint_bottom_lip=0.0&amp;FingerJoint_edge_width=1.0&amp;FingerJoint_extra_length=0.0&amp;FingerJoint_finger=2.0&amp;FingerJoint_play=0.0&amp;FingerJoint_space=2.0&amp;FingerJoint_width=1.0&amp;Stackable_angle=60&amp;Stackable_bottom_stabilizers=0.0&amp;Stackable_height=2.0&amp;Stackable_holedistance=1.0&amp;Stackable_width=4.0&amp;Hinge_grip_percentage=0&amp;Hinge_outset=0&amp;Hinge_pinwidth=0.5&amp;Hinge_style=outset&amp;Hinge_axle=2.0&amp;Hinge_grip_length=0&amp;Hinge_hingestrength=1&amp;CabinetHinge_bore=3.2&amp;CabinetHinge_eyes_per_hinge=5&amp;CabinetHinge_hinges=2&amp;CabinetHinge_style=inside&amp;CabinetHinge_eye=1.5&amp;CabinetHinge_play=0.05&amp;CabinetHinge_spacing=2.0&amp;SlideOnLid_angle=90.0&amp;SlideOnLid_hole_width=0&amp;SlideOnLid_second_pin=0&amp;SlideOnLid_second_pin=1&amp;SlideOnLid_spring=both&amp;SlideOnLid_style=rectangular&amp;SlideOnLid_surroundingspaces=2.0&amp;SlideOnLid_bottom_lip=0.0&amp;SlideOnLid_edge_width=1.0&amp;SlideOnLid_extra_length=0.0&amp;SlideOnLid_finger=3.0&amp;SlideOnLid_play=0.05&amp;SlideOnLid_space=2.0&amp;SlideOnLid_width=1.0&amp;Click_angle=5.0&amp;Click_bottom_radius=0.1&amp;Click_depth=3.0&amp;RoundedTriangleEdge_height=50.0&amp;RoundedTriangleEdge_r_hole=2.0&amp;RoundedTriangleEdge_radius=30.0&amp;RoundedTriangleEdge_outset=1.0&amp;Mounting_d_head=6.5&amp;Mounting_d_shaft=3.0&amp;Mounting_margin=0.125&amp;Mounting_num=2&amp;Mounting_side=back&amp;Mounting_style=straight+edge%2C+within&amp;HandleEdge_height=20.0&amp;HandleEdge_hole_height=75.0&amp;HandleEdge_hole_width=40%3A40&amp;HandleEdge_on_sides=0&amp;HandleEdge_on_sides=1&amp;HandleEdge_radius=10.0&amp;HandleEdge_outset=1.0&amp;Lid_handle=none&amp;Lid_style=none&amp;Lid_handle_height=8.0&amp;Lid_height=4.0&amp;Lid_play=0.1&amp;sx=35%3A27&amp;sy=55&amp;h=40&amp;hi=0.0&amp;outside=0&amp;bottom_edge=F&amp;top_edge=L&amp;back_height=0.0&amp;radius=0.0&amp;gripheight=30&amp;gripwidth=0&amp;handle=0&amp;thickness=3.0&amp;format=svg&amp;tabs=0.0&amp;qr_code=0&amp;debug=0&amp;labels=0&amp;labels=1&amp;reference=100&amp;inner_corners=loop&amp;burn=0.07&amp;language=de&amp;render=1
Url short: http://www.festi.info/boxes.py/TypeTray?sx=35%3A27&amp;sy=55&amp;h=40&amp;outside=0&amp;bottom_edge=F&amp;top_edge=L&amp;burn=0.07
SettingsUrl: http://www.festi.info/boxes.py/TypeTray?FingerJoint_angle=90.0&amp;FingerJoint_style=rectangular&amp;FingerJoint_surroundingspaces=0.5&amp;FingerJoint_bottom_lip=0.0&amp;FingerJoint_edge_width=1.0&amp;FingerJoint_extra_length=0.0&amp;FingerJoint_finger=2.0&amp;FingerJoint_play=0.0&amp;FingerJoint_space=2.0&amp;FingerJoint_width=1.0&amp;Stackable_angle=60&amp;Stackable_bottom_stabilizers=0.0&amp;Stackable_height=2.0&amp;Stackable_holedistance=1.0&amp;Stackable_width=4.0&amp;Hinge_grip_percentage=0&amp;Hinge_outset=0&amp;Hinge_pinwidth=0.5&amp;Hinge_style=outset&amp;Hinge_axle=2.0&amp;Hinge_grip_length=0&amp;Hinge_hingestrength=1&amp;CabinetHinge_bore=3.2&amp;CabinetHinge_eyes_per_hinge=5&amp;CabinetHinge_hinges=2&amp;CabinetHinge_style=inside&amp;CabinetHinge_eye=1.5&amp;CabinetHinge_play=0.05&amp;CabinetHinge_spacing=2.0&amp;SlideOnLid_angle=90.0&amp;SlideOnLid_hole_width=0&amp;SlideOnLid_second_pin=0&amp;SlideOnLid_second_pin=1&amp;SlideOnLid_spring=both&amp;SlideOnLid_style=rectangular&amp;SlideOnLid_surroundingspaces=2.0&amp;SlideOnLid_bottom_lip=0.0&amp;SlideOnLid_edge_width=1.0&amp;SlideOnLid_extra_length=0.0&amp;SlideOnLid_finger=3.0&amp;SlideOnLid_play=0.05&amp;SlideOnLid_space=2.0&amp;SlideOnLid_width=1.0&amp;Click_angle=5.0&amp;Click_bottom_radius=0.1&amp;Click_depth=3.0&amp;RoundedTriangleEdge_height=50.0&amp;RoundedTriangleEdge_r_hole=2.0&amp;RoundedTriangleEdge_radius=30.0&amp;RoundedTriangleEdge_outset=1.0&amp;Mounting_d_head=6.5&amp;Mounting_d_shaft=3.0&amp;Mounting_margin=0.125&amp;Mounting_num=2&amp;Mounting_side=back&amp;Mounting_style=straight+edge%2C+within&amp;HandleEdge_height=20.0&amp;HandleEdge_hole_height=75.0&amp;HandleEdge_hole_width=40%3A40&amp;HandleEdge_on_sides=0&amp;HandleEdge_on_sides=1&amp;HandleEdge_radius=10.0&amp;HandleEdge_outset=1.0&amp;Lid_handle=none&amp;Lid_style=none&amp;Lid_handle_height=8.0&amp;Lid_height=4.0&amp;Lid_play=0.1&amp;sx=35%3A27&amp;sy=55&amp;h=40&amp;hi=0.0&amp;outside=0&amp;bottom_edge=F&amp;top_edge=L&amp;back_height=0.0&amp;radius=0.0&amp;gripheight=30&amp;gripwidth=0&amp;handle=0&amp;thickness=3.0&amp;format=svg&amp;tabs=0.0&amp;qr_code=0&amp;debug=0&amp;labels=0&amp;labels=1&amp;reference=100&amp;inner_corners=loop&amp;burn=0.07&amp;language=de
SettingsUrl short: http://www.festi.info/boxes.py/TypeTray?sx=35%3A27&amp;sy=55&amp;h=40&amp;outside=0&amp;bottom_edge=F&amp;top_edge=L&amp;burn=0.07
</dc:description>
      </cc:Work>
    </rdf:RDF>
  </metadata>
  <g
     id="p-0"
     style="fill:none;stroke-linecap:round;stroke-linejoin:round;">
    <path
       d="M 10.400 240.700 H 110.400 V 230.700 H 10.400 V 240.700 Z"
       stroke="rgb(0,0,0)"
       stroke-width="0.14"
       id="path1052" />
    <text
       transform="matrix( 1.000 0.000 0.000 1.000 60.400 231.700 )"
       style="font-family: sans-serif ; font-weight: normal; font-style: normal; fill: rgb(255,0,0)"
       font-size="8px"
       text-anchor="middle"
       dominant-baseline="hanging"
       id="text1054">100mm, burn:0.07mm</text>
  </g>
  <g
     id="p-1"
     style="fill:none;stroke-linecap:round;stroke-linejoin:round;">
    <path
       d="M 51.330 217.990 V 220.920 C 51.330 220.990 51.400 220.920 51.330 220.920 H 48.470 C 48.400 220.920 48.470 220.990 48.470 220.920 V 215.060 C 48.470 214.990 48.400 215.060 48.470 215.060 H 51.330 C 51.400 215.060 51.330 214.990 51.330 215.060 V 217.990 Z"
       stroke="rgb(0,0,255)"
       stroke-width="0.14"
       id="path1057" />
    <path
       d="M 51.330 205.990 V 208.920 C 51.330 208.990 51.400 208.920 51.330 208.920 H 48.470 C 48.400 208.920 48.470 208.990 48.470 208.920 V 203.060 C 48.470 202.990 48.400 203.060 48.470 203.060 H 51.330 C 51.400 203.060 51.330 202.990 51.330 203.060 V 205.990 Z"
       stroke="rgb(0,0,255)"
       stroke-width="0.14"
       id="path1059" />
    <path
       d="M 51.330 193.990 V 196.920 C 51.330 196.990 51.400 196.920 51.330 196.920 H 48.470 C 48.400 196.920 48.470 196.990 48.470 196.920 V 191.060 C 48.470 190.990 48.400 191.060 48.470 191.060 H 51.330 C 51.400 191.060 51.330 190.990 51.330 191.060 V 193.990 Z"
       stroke="rgb(0,0,255)"
       stroke-width="0.14"
       id="path1061" />
    <text
       transform="matrix( 1.000 0.000 0.000 1.000 45.900 202.560 )"
       style="font-family: sans-serif ; font-weight: normal; font-style: normal; fill: rgb(255,0,0)"
       font-size="4px"
       text-anchor="middle"
       dominant-baseline="hanging"
       id="text1063">back</text>
    <path
       d="M 13.400 229.060 H 18.900 C 18.939 229.060 18.970 229.029 18.970 228.990 V 226.060 C 18.970 225.990 18.900 226.060 18.970 226.060 H 24.830 C 24.900 226.060 24.830 225.990 24.830 226.060 V 228.990 C 24.830 229.029 24.861 229.060 24.900 229.060 H 30.900 C 30.939 229.060 30.970 229.029 30.970 228.990 V 226.060 C 30.970 225.990 30.900 226.060 30.970 226.060 H 36.830 C 36.900 226.060 36.830 225.990 36.830 226.060 V 228.990 C 36.830 229.029 36.861 229.060 36.900 229.060 H 42.900 C 42.939 229.060 42.970 229.029 42.970 228.990 V 226.060 C 42.970 225.990 42.900 226.060 42.970 226.060 H 48.830 C 48.900 226.060 48.830 225.990 48.830 226.060 V 228.990 C 48.830 229.029 48.861 229.060 48.900 229.060 H 54.900 C 54.939 229.060 54.970 229.029 54.970 228.990 V 226.060 C 54.970 225.990 54.900 226.060 54.970 226.060 H 60.830 C 60.900 226.060 60.830 225.990 60.830 226.060 V 228.990 C 60.830 229.029 60.861 229.060 60.900 229.060 H 66.900 C 66.939 229.060 66.970 229.029 66.970 228.990 V 226.060 C 66.970 225.990 66.900 226.060 66.970 226.060 H 72.830 C 72.900 226.060 72.830 225.990 72.830 226.060 V 228.990 C 72.830 229.029 72.861 229.060 72.900 229.060 H 78.400 H 81.400 C 81.439 229.060 81.470 229.029 81.470 228.990 V 222.490 C 81.470 222.451 81.439 222.420 81.400 222.420 H 78.470 C 78.400 222.420 78.470 222.490 78.470 222.420 V 216.560 C 78.470 216.490 78.400 216.560 78.470 216.560 H 81.400 C 81.439 216.560 81.470 216.529 81.470 216.490 V 210.490 C 81.470 210.451 81.439 210.420 81.400 210.420 H 78.470 C 78.400 210.420 78.470 210.490 78.470 210.420 V 204.560 C 78.470 204.490 78.400 204.560 78.470 204.560 H 81.400 C 81.439 204.560 81.470 204.529 81.470 204.490 V 198.490 C 81.470 198.451 81.439 198.420 81.400 198.420 H 78.470 C 78.400 198.420 78.470 198.490 78.470 198.420 V 192.560 C 78.470 192.490 78.400 192.560 78.470 192.560 H 81.400 C 81.439 192.560 81.470 192.529 81.470 192.490 V 185.990 V 179.990 C 81.470 179.951 81.439 179.920 81.400 179.920 H 78.400 H 13.400 H 10.400 C 10.361 179.920 10.330 179.951 10.330 179.990 V 185.990 V 192.490 C 10.330 192.529 10.361 192.560 10.400 192.560 H 13.330 C 13.400 192.560 13.330 192.490 13.330 192.560 V 198.420 C 13.330 198.490 13.400 198.420 13.330 198.420 H 10.400 C 10.361 198.420 10.330 198.451 10.330 198.490 V 204.490 C 10.330 204.529 10.361 204.560 10.400 204.560 H 13.330 C 13.400 204.560 13.330 204.490 13.330 204.560 V 210.420 C 13.330 210.490 13.400 210.420 13.330 210.420 H 10.400 C 10.361 210.420 10.330 210.451 10.330 210.490 V 216.490 C 10.330 216.529 10.361 216.560 10.400 216.560 H 13.330 C 13.400 216.560 13.330 216.490 13.330 216.560 V 222.420 C 13.330 222.490 13.400 222.420 13.330 222.420 H 10.400 C 10.361 222.420 10.330 222.451 10.330 222.490 V 228.990 C 10.330 229.029 10.361 229.060 10.400 229.060 H 13.400"
       stroke="rgb(0,0,0)"
       stroke-width="0.14"
       id="path1065" />
    <path
       d="M 60.900 182.985 H 65.405 C 65.475 182.985 65.405 182.915 65.405 182.985 V 185.995 C 65.405 186.065 65.475 185.995 65.405 185.995 H 56.395 C 56.325 185.995 56.395 186.065 56.395 185.995 V 182.985 C 56.395 182.915 56.325 182.985 56.395 182.985 H 60.900 Z"
       stroke="rgb(0,0,255)"
       stroke-width="0.14"
       id="path1067" />
    <path
       d="M 45.900 182.985 H 50.405 C 50.475 182.985 50.405 182.915 50.405 182.985 V 185.995 C 50.405 186.065 50.475 185.995 50.405 185.995 H 41.395 C 41.325 185.995 41.395 186.065 41.395 185.995 V 182.985 C 41.395 182.915 41.325 182.985 41.395 182.985 H 45.900 Z"
       stroke="rgb(0,0,255)"
       stroke-width="0.14"
       id="path1069" />
    <path
       d="M 30.900 182.985 H 35.405 C 35.475 182.985 35.405 182.915 35.405 182.985 V 185.995 C 35.405 186.065 35.475 185.995 35.405 185.995 H 26.395 C 26.325 185.995 26.395 186.065 26.395 185.995 V 182.985 C 26.395 182.915 26.325 182.985 26.395 182.985 H 30.900 Z"
       stroke="rgb(0,0,255)"
       stroke-width="0.14"
       id="path1071" />
  </g>
  <g
     id="p-2"
     style="fill:none;stroke-linecap:round;stroke-linejoin:round;">
    <path
       d="M 40.470 167.350 V 170.280 C 40.470 170.350 40.400 170.280 40.470 170.280 H 43.330 C 43.400 170.280 43.330 170.350 43.330 170.280 V 164.420 C 43.330 164.350 43.400 164.420 43.330 164.420 H 40.470 C 40.400 164.420 40.470 164.350 40.470 164.420 V 167.350 Z"
       stroke="rgb(0,0,255)"
       stroke-width="0.14"
       id="path1074" />
    <path
       d="M 40.470 155.350 V 158.280 C 40.470 158.350 40.400 158.280 40.470 158.280 H 43.330 C 43.400 158.280 43.330 158.350 43.330 158.280 V 152.420 C 43.330 152.350 43.400 152.420 43.330 152.420 H 40.470 C 40.400 152.420 40.470 152.350 40.470 152.420 V 155.350 Z"
       stroke="rgb(0,0,255)"
       stroke-width="0.14"
       id="path1076" />
    <path
       d="M 40.470 143.350 V 146.280 C 40.470 146.350 40.400 146.280 40.470 146.280 H 43.330 C 43.400 146.280 43.330 146.350 43.330 146.280 V 140.420 C 43.330 140.350 43.400 140.420 43.330 140.420 H 40.470 C 40.400 140.420 40.470 140.350 40.470 140.420 V 143.350 Z"
       stroke="rgb(0,0,255)"
       stroke-width="0.14"
       id="path1078" />
    <text
       transform="matrix( 1.000 0.000 0.000 1.000 45.900 154.920 )"
       style="font-family: sans-serif ; font-weight: normal; font-style: normal; fill: rgb(255,0,0)"
       font-size="4px"
       text-anchor="middle"
       dominant-baseline="hanging"
       id="text1080">front</text>
    <path
       d="M 13.400 178.420 H 18.900 C 18.939 178.420 18.970 178.389 18.970 178.350 V 175.420 C 18.970 175.350 18.900 175.420 18.970 175.420 H 24.830 C 24.900 175.420 24.830 175.350 24.830 175.420 V 178.350 C 24.830 178.389 24.861 178.420 24.900 178.420 H 30.900 C 30.939 178.420 30.970 178.389 30.970 178.350 V 175.420 C 30.970 175.350 30.900 175.420 30.970 175.420 H 36.830 C 36.900 175.420 36.830 175.350 36.830 175.420 V 178.350 C 36.830 178.389 36.861 178.420 36.900 178.420 H 42.900 C 42.939 178.420 42.970 178.389 42.970 178.350 V 175.420 C 42.970 175.350 42.900 175.420 42.970 175.420 H 48.830 C 48.900 175.420 48.830 175.350 48.830 175.420 V 178.350 C 48.830 178.389 48.861 178.420 48.900 178.420 H 54.900 C 54.939 178.420 54.970 178.389 54.970 178.350 V 175.420 C 54.970 175.350 54.900 175.420 54.970 175.420 H 60.830 C 60.900 175.420 60.830 175.350 60.830 175.420 V 178.350 C 60.830 178.389 60.861 178.420 60.900 178.420 H 66.900 C 66.939 178.420 66.970 178.389 66.970 178.350 V 175.420 C 66.970 175.350 66.900 175.420 66.970 175.420 H 72.830 C 72.900 175.420 72.830 175.350 72.830 175.420 V 178.350 C 72.830 178.389 72.861 178.420 72.900 178.420 H 78.400 H 81.400 C 81.439 178.420 81.470 178.389 81.470 178.350 V 171.850 C 81.470 171.811 81.439 171.780 81.400 171.780 H 78.470 C 78.400 171.780 78.470 171.850 78.470 171.780 V 165.920 C 78.470 165.850 78.400 165.920 78.470 165.920 H 81.400 C 81.439 165.920 81.470 165.889 81.470 165.850 V 159.850 C 81.470 159.811 81.439 159.780 81.400 159.780 H 78.470 C 78.400 159.780 78.470 159.850 78.470 159.780 V 153.920 C 78.470 153.850 78.400 153.920 78.470 153.920 H 81.400 C 81.439 153.920 81.470 153.889 81.470 153.850 V 147.850 C 81.470 147.811 81.439 147.780 81.400 147.780 H 78.470 C 78.400 147.780 78.470 147.850 78.470 147.780 V 141.920 C 78.470 141.850 78.400 141.920 78.470 141.920 H 81.400 C 81.439 141.920 81.470 141.889 81.470 141.850 V 135.350 C 81.470 135.311 81.439 135.280 81.400 135.280 H 78.400 H 13.400 H 10.400 C 10.361 135.280 10.330 135.311 10.330 135.350 V 141.850 C 10.330 141.889 10.361 141.920 10.400 141.920 H 13.330 C 13.400 141.920 13.330 141.850 13.330 141.920 V 147.780 C 13.330 147.850 13.400 147.780 13.330 147.780 H 10.400 C 10.361 147.780 10.330 147.811 10.330 147.850 V 153.850 C 10.330 153.889 10.361 153.920 10.400 153.920 H 13.330 C 13.400 153.920 13.330 153.850 13.330 153.920 V 159.780 C 13.330 159.850 13.400 159.780 13.330 159.780 H 10.400 C 10.361 159.780 10.330 159.811 10.330 159.850 V 165.850 C 10.330 165.889 10.361 165.920 10.400 165.920 H 13.330 C 13.400 165.920 13.330 165.850 13.330 165.920 V 171.780 C 13.330 171.850 13.400 171.780 13.330 171.780 H 10.400 C 10.361 171.780 10.330 171.811 10.330 171.850 V 178.350 C 10.330 178.389 10.361 178.420 10.400 178.420 H 13.400"
       stroke="rgb(0,0,0)"
       stroke-width="0.14"
       id="path1082" />
  </g>
  <g
     id="p-3"
     style="fill:none;stroke-linecap:round;stroke-linejoin:round"
     transform="translate(-161.07615,-57.240005)">
    <path
       d="m 51.33,121.21 v 2.93 c 0,0.07 0.07,0 0,0 h -2.86 c -0.07,0 0,0.07 0,0 v -5.86 c 0,-0.07 -0.07,0 0,0 h 2.86 c 0.07,0 0,-0.07 0,0 z"
       stroke="#0000ff"
       stroke-width="0.14"
       id="path1085" />
    <path
       d="m 51.33,109.21 v 2.93 c 0,0.07 0.07,0 0,0 h -2.86 c -0.07,0 0,0.07 0,0 v -5.86 c 0,-0.07 -0.07,0 0,0 h 2.86 c 0.07,0 0,-0.07 0,0 z"
       stroke="#0000ff"
       stroke-width="0.14"
       id="path1087" />
    <path
       d="m 51.33,97.21 v 2.93 c 0,0.07 0.07,0 0,0 h -2.86 c -0.07,0 0,0.07 0,0 v -5.86 c 0,-0.07 -0.07,0 0,0 h 2.86 c 0.07,0 0,-0.07 0,0 z"
       stroke="#0000ff"
       stroke-width="0.14"
       id="path1089" />
    <path
       d="m 51.33,85.21 v 2.93 c 0,0.07 0.07,0 0,0 h -2.86 c -0.07,0 0,0.07 0,0 v -5.86 c 0,-0.07 -0.07,0 0,0 h 2.86 c 0.07,0 0,-0.07 0,0 z"
       stroke="#0000ff"
       stroke-width="0.14"
       id="path1091" />
    <text
       transform="translate(45.9,101.28)"
       style="font-style:normal;font-weight:normal;font-family:sans-serif;fill:#ff0000"
       font-size="4px"
       text-anchor="middle"
       dominant-baseline="hanging"
       id="text1093">bottom</text>
    <path
       d="m 13.4,130.78 h 5.43 c 0.07,0 0,-0.07 0,0 v 2.93 c 0,0.039 0.031,0.07 0.07,0.07 h 6 c 0.039,0 0.07,-0.031 0.07,-0.07 v -2.93 c 0,-0.07 -0.07,0 0,0 h 5.86 c 0.07,0 0,-0.07 0,0 v 2.93 c 0,0.039 0.031,0.07 0.07,0.07 h 6 c 0.039,0 0.07,-0.031 0.07,-0.07 v -2.93 c 0,-0.07 -0.07,0 0,0 h 5.86 c 0.07,0 0,-0.07 0,0 v 2.93 c 0,0.039 0.031,0.07 0.07,0.07 h 6 c 0.039,0 0.07,-0.031 0.07,-0.07 v -2.93 c 0,-0.07 -0.07,0 0,0 h 5.86 c 0.07,0 0,-0.07 0,0 v 2.93 c 0,0.039 0.031,0.07 0.07,0.07 h 6 c 0.039,0 0.07,-0.031 0.07,-0.07 v -2.93 c 0,-0.07 -0.07,0 0,0 h 5.86 c 0.07,0 0,-0.07 0,0 v 2.93 c 0,0.039 0.031,0.07 0.07,0.07 h 6 c 0.039,0 0.07,-0.031 0.07,-0.07 v -2.93 c 0,-0.07 -0.07,0 0,0 h 5.43 c 0.039,0 0.07,-0.031 0.07,-0.07 v -6.43 c 0,-0.07 -0.07,0 0,0 h 2.93 c 0.039,0 0.07,-0.031 0.07,-0.07 v -6 c 0,-0.039 -0.031,-0.07 -0.07,-0.07 h -2.93 c -0.07,0 0,0.07 0,0 v -5.86 c 0,-0.07 -0.07,0 0,0 h 2.93 c 0.039,0 0.07,-0.031 0.07,-0.07 v -6 c 0,-0.039 -0.031,-0.07 -0.07,-0.07 h -2.93 c -0.07,0 0,0.07 0,0 v -5.86 c 0,-0.07 -0.07,0 0,0 h 2.93 c 0.039,0 0.07,-0.031 0.07,-0.07 v -6 c 0,-0.039 -0.031,-0.07 -0.07,-0.07 h -2.93 c -0.07,0 0,0.07 0,0 v -5.86 c 0,-0.07 -0.07,0 0,0 h 2.93 c 0.039,0 0.07,-0.031 0.07,-0.07 v -6 c 0,-0.039 -0.031,-0.07 -0.07,-0.07 h -2.93 c -0.07,0 0,0.07 0,0 v -6.43 c 0,-0.039 -0.031,-0.07 -0.07,-0.07 h -5.43 c -0.07,0 0,0.07 0,0 v -2.93 c 0,-0.039 -0.031,-0.07 -0.07,-0.07 h -6 c -0.039,0 -0.07,0.031 -0.07,0.07 v 2.93 c 0,0.07 0.07,0 0,0 h -5.86 c -0.07,0 0,0.07 0,0 v -2.93 c 0,-0.039 -0.031,-0.07 -0.07,-0.07 h -6 c -0.039,0 -0.07,0.031 -0.07,0.07 v 2.93 c 0,0.07 0.07,0 0,0 h -5.86 c -0.07,0 0,0.07 0,0 v -2.93 c 0,-0.039 -0.031,-0.07 -0.07,-0.07 h -6 c -0.039,0 -0.07,0.031 -0.07,0.07 v 2.93 c 0,0.07 0.07,0 0,0 h -5.86 c -0.07,0 0,0.07 0,0 v -2.93 c 0,-0.039 -0.031,-0.07 -0.07,-0.07 h -6 c -0.039,0 -0.07,0.031 -0.07,0.07 v 2.93 c 0,0.07 0.07,0 0,0 h -5.86 c -0.07,0 0,0.07 0,0 v -2.93 c 0,-0.039 -0.031,-0.07 -0.07,-0.07 h -6 c -0.039,0 -0.07,0.031 -0.07,0.07 v 2.93 c 0,0.07 0.07,0 0,0 H 13.4 c -0.039,0 -0.07,0.031 -0.07,0.07 v 6.43 c 0,0.07 0.07,0 0,0 H 10.4 c -0.039,0 -0.07,0.031 -0.07,0.07 v 6 c 0,0.039 0.031,0.07 0.07,0.07 h 2.93 c 0.07,0 0,-0.07 0,0 v 5.86 c 0,0.07 0.07,0 0,0 H 10.4 c -0.039,0 -0.07,0.031 -0.07,0.07 v 6 c 0,0.039 0.031,0.07 0.07,0.07 h 2.93 c 0.07,0 0,-0.07 0,0 v 5.86 c 0,0.07 0.07,0 0,0 H 10.4 c -0.039,0 -0.07,0.031 -0.07,0.07 v 6 c 0,0.039 0.031,0.07 0.07,0.07 h 2.93 c 0.07,0 0,-0.07 0,0 v 5.86 c 0,0.07 0.07,0 0,0 H 10.4 c -0.039,0 -0.07,0.031 -0.07,0.07 v 6 c 0,0.039 0.031,0.07 0.07,0.07 h 2.93 c 0.07,0 0,-0.07 0,0 v 6.43 c 0,0.039 0.031,0.07 0.07,0.07"
       stroke="#000000"
       stroke-width="0.14"
       id="path1095" />
  </g>
  <g
     id="p-4"
     style="fill:none;stroke-linecap:round;stroke-linejoin:round;">
    <text
       transform="matrix( 1.000 0.000 0.000 1.000 45.900 38.640 )"
       style="font-family: sans-serif ; font-weight: normal; font-style: normal; fill: rgb(255,0,0)"
       font-size="4px"
       text-anchor="middle"
       dominant-baseline="hanging"
       id="text1098">lid top</text>
    <path
       d="M 13.400 71.140 H 78.400 H 81.400 C 81.439 71.140 81.470 71.109 81.470 71.070 V 68.070 C 81.470 68.031 81.439 68.000 81.400 68.000 H 75.470 C 75.400 68.000 75.470 68.070 75.470 68.000 V 50.070 C 75.470 49.951 75.501 49.833 75.561 49.730 C 75.621 49.627 75.707 49.541 75.810 49.481 C 75.913 49.421 76.031 49.390 76.150 49.390 C 76.269 49.390 76.387 49.421 76.490 49.481 C 76.593 49.541 76.679 49.627 76.739 49.730 C 76.799 49.833 76.830 49.951 76.830 50.070 V 67.470 C 76.830 67.509 76.861 67.540 76.900 67.540 H 78.400 C 78.425 67.540 78.448 67.527 78.461 67.505 L 79.153 66.305 C 79.166 66.283 79.166 66.257 79.153 66.235 L 78.470 65.051 C 78.461 65.035 78.470 65.070 78.470 65.051 V 22.140 C 78.470 22.070 78.400 22.140 78.470 22.140 H 81.400 C 81.439 22.140 81.470 22.109 81.470 22.070 V 16.070 C 81.470 16.031 81.439 16.000 81.400 16.000 H 78.470 C 78.400 16.000 78.470 16.070 78.470 16.000 V 13.070 C 78.470 13.031 78.439 13.000 78.400 13.000 H 65.470 C 65.400 13.000 65.470 13.070 65.470 13.000 V 10.070 C 65.470 10.031 65.439 10.000 65.400 10.000 H 56.400 C 56.361 10.000 56.330 10.031 56.330 10.070 V 13.000 C 56.330 13.070 56.400 13.000 56.330 13.000 H 50.470 C 50.400 13.000 50.470 13.070 50.470 13.000 V 10.070 C 50.470 10.031 50.439 10.000 50.400 10.000 H 41.400 C 41.361 10.000 41.330 10.031 41.330 10.070 V 13.000 C 41.330 13.070 41.400 13.000 41.330 13.000 H 35.470 C 35.400 13.000 35.470 13.070 35.470 13.000 V 10.070 C 35.470 10.031 35.439 10.000 35.400 10.000 H 26.400 C 26.361 10.000 26.330 10.031 26.330 10.070 V 13.000 C 26.330 13.070 26.400 13.000 26.330 13.000 H 13.400 C 13.361 13.000 13.330 13.031 13.330 13.070 V 16.000 C 13.330 16.070 13.400 16.000 13.330 16.000 H 10.400 C 10.361 16.000 10.330 16.031 10.330 16.070 V 22.070 C 10.330 22.109 10.361 22.140 10.400 22.140 H 13.330 C 13.400 22.140 13.330 22.070 13.330 22.140 V 65.051 C 13.330 65.070 13.339 65.035 13.330 65.051 L 12.647 66.235 C 12.634 66.257 12.634 66.283 12.647 66.305 L 13.339 67.505 C 13.352 67.527 13.375 67.540 13.400 67.540 H 14.900 C 14.939 67.540 14.970 67.509 14.970 67.470 V 50.070 C 14.970 49.951 15.001 49.833 15.061 49.730 C 15.121 49.627 15.207 49.541 15.310 49.481 C 15.413 49.421 15.531 49.390 15.650 49.390 C 15.769 49.390 15.887 49.421 15.990 49.481 C 16.093 49.541 16.179 49.627 16.239 49.730 C 16.299 49.833 16.330 49.951 16.330 50.070 V 68.000 C 16.330 68.070 16.400 68.000 16.330 68.000 H 10.400 C 10.361 68.000 10.330 68.031 10.330 68.070 V 71.070 C 10.330 71.109 10.361 71.140 10.400 71.140 H 13.400"
       stroke="rgb(0,0,0)"
       stroke-width="0.14"
       id="path1100" />
  </g>
  <g
     id="p-5"
     style="fill:none;stroke-linecap:round;stroke-linejoin:round;">
    <text
       transform="matrix( 1.000 0.000 0.000 1.000 113.540 202.560 )"
       style="font-family: sans-serif ; font-weight: normal; font-style: normal; fill: rgb(255,0,0)"
       font-size="4px"
       text-anchor="middle"
       dominant-baseline="hanging"
       id="text1103">left side</text>
    <path
       d="M 86.040 229.060 H 92.540 C 92.579 229.060 92.610 229.029 92.610 228.990 V 226.060 C 92.610 225.990 92.540 226.060 92.610 226.060 H 98.470 C 98.540 226.060 98.470 225.990 98.470 226.060 V 228.990 C 98.470 229.029 98.501 229.060 98.540 229.060 H 104.540 C 104.579 229.060 104.610 229.029 104.610 228.990 V 226.060 C 104.610 225.990 104.540 226.060 104.610 226.060 H 110.470 C 110.540 226.060 110.470 225.990 110.470 226.060 V 228.990 C 110.470 229.029 110.501 229.060 110.540 229.060 H 116.540 C 116.579 229.060 116.610 229.029 116.610 228.990 V 226.060 C 116.610 225.990 116.540 226.060 116.610 226.060 H 122.470 C 122.540 226.060 122.470 225.990 122.470 226.060 V 228.990 C 122.470 229.029 122.501 229.060 122.540 229.060 H 128.540 C 128.579 229.060 128.610 229.029 128.610 228.990 V 226.060 C 128.610 225.990 128.540 226.060 128.610 226.060 H 134.470 C 134.540 226.060 134.470 225.990 134.470 226.060 V 228.990 C 134.470 229.029 134.501 229.060 134.540 229.060 H 141.040 C 141.079 229.060 141.110 229.029 141.110 228.990 V 222.560 C 141.110 222.490 141.040 222.560 141.110 222.560 H 144.040 C 144.079 222.560 144.110 222.529 144.110 222.490 V 216.490 C 144.110 216.451 144.079 216.420 144.040 216.420 H 141.110 C 141.040 216.420 141.110 216.490 141.110 216.420 V 210.560 C 141.110 210.490 141.040 210.560 141.110 210.560 H 144.040 C 144.079 210.560 144.110 210.529 144.110 210.490 V 204.490 C 144.110 204.451 144.079 204.420 144.040 204.420 H 141.110 C 141.040 204.420 141.110 204.490 141.110 204.420 V 198.560 C 141.110 198.490 141.040 198.560 141.110 198.560 H 144.040 C 144.079 198.560 144.110 198.529 144.110 198.490 V 192.490 C 144.110 192.451 144.079 192.420 144.040 192.420 H 141.110 C 141.040 192.420 141.110 192.490 141.110 192.420 V 185.990 V 186.065 C 141.110 186.026 141.079 185.995 141.040 185.995 H 140.960 C 140.890 185.995 140.960 186.065 140.960 185.995 V 182.985 C 140.960 182.915 140.890 182.985 140.960 182.985 H 144.040 C 144.079 182.985 144.110 182.954 144.110 182.915 V 179.990 C 144.110 179.951 144.079 179.920 144.040 179.920 H 103.540 C 103.352 179.920 103.168 179.969 103.005 180.063 C 102.842 180.157 102.707 180.292 102.613 180.455 C 102.519 180.618 102.470 180.802 102.470 180.990 V 185.995 C 102.470 186.065 102.540 185.995 102.470 185.995 H 88.960 C 88.890 185.995 88.960 186.065 88.960 185.995 V 182.985 C 88.960 182.915 88.890 182.985 88.960 182.985 H 93.890 C 94.078 182.985 94.262 182.936 94.425 182.842 C 94.588 182.748 94.723 182.613 94.817 182.450 C 94.911 182.287 94.960 182.103 94.960 181.915 V 180.990 C 94.960 180.802 94.911 180.618 94.817 180.455 C 94.723 180.292 94.588 180.157 94.425 180.063 C 94.262 179.969 94.078 179.920 93.890 179.920 H 86.040 C 86.001 179.920 85.970 179.951 85.970 179.990 V 185.990 V 192.420 C 85.970 192.490 86.040 192.420 85.970 192.420 H 83.040 C 83.001 192.420 82.970 192.451 82.970 192.490 V 198.490 C 82.970 198.529 83.001 198.560 83.040 198.560 H 85.970 C 86.040 198.560 85.970 198.490 85.970 198.560 V 204.420 C 85.970 204.490 86.040 204.420 85.970 204.420 H 83.040 C 83.001 204.420 82.970 204.451 82.970 204.490 V 210.490 C 82.970 210.529 83.001 210.560 83.040 210.560 H 85.970 C 86.040 210.560 85.970 210.490 85.970 210.560 V 216.420 C 85.970 216.490 86.040 216.420 85.970 216.420 H 83.040 C 83.001 216.420 82.970 216.451 82.970 216.490 V 222.490 C 82.970 222.529 83.001 222.560 83.040 222.560 H 85.970 C 86.040 222.560 85.970 222.490 85.970 222.560 V 228.990 C 85.970 229.029 86.001 229.060 86.040 229.060"
       stroke="rgb(0,0,0)"
       stroke-width="0.14"
       id="path1105" />
    <path
       d="M 139.240 182.910 H 139.770 C 139.840 182.910 139.770 182.840 139.770 182.910 V 186.070 C 139.770 186.140 139.840 186.070 139.770 186.070 H 138.710 C 138.640 186.070 138.710 186.140 138.710 186.070 V 182.910 C 138.710 182.840 138.640 182.910 138.710 182.910 H 139.240 Z"
       stroke="rgb(0,0,255)"
       stroke-width="0.14"
       id="path1107" />
  </g>
  <g
     id="p-6"
     style="fill:none;stroke-linecap:round;stroke-linejoin:round;">
    <text
       transform="matrix( 1.000 0.000 0.000 1.000 113.540 151.920 )"
       style="font-family: sans-serif ; font-weight: normal; font-style: normal; fill: rgb(255,0,0)"
       font-size="4px"
       text-anchor="middle"
       dominant-baseline="hanging"
       id="text1110">right side</text>
    <path
       d="M 86.040 178.420 H 92.540 C 92.579 178.420 92.610 178.389 92.610 178.350 V 175.420 C 92.610 175.350 92.540 175.420 92.610 175.420 H 98.470 C 98.540 175.420 98.470 175.350 98.470 175.420 V 178.350 C 98.470 178.389 98.501 178.420 98.540 178.420 H 104.540 C 104.579 178.420 104.610 178.389 104.610 178.350 V 175.420 C 104.610 175.350 104.540 175.420 104.610 175.420 H 110.470 C 110.540 175.420 110.470 175.350 110.470 175.420 V 178.350 C 110.470 178.389 110.501 178.420 110.540 178.420 H 116.540 C 116.579 178.420 116.610 178.389 116.610 178.350 V 175.420 C 116.610 175.350 116.540 175.420 116.610 175.420 H 122.470 C 122.540 175.420 122.470 175.350 122.470 175.420 V 178.350 C 122.470 178.389 122.501 178.420 122.540 178.420 H 128.540 C 128.579 178.420 128.610 178.389 128.610 178.350 V 175.420 C 128.610 175.350 128.540 175.420 128.610 175.420 H 134.470 C 134.540 175.420 134.470 175.350 134.470 175.420 V 178.350 C 134.470 178.389 134.501 178.420 134.540 178.420 H 141.040 C 141.079 178.420 141.110 178.389 141.110 178.350 V 171.920 C 141.110 171.850 141.040 171.920 141.110 171.920 H 144.040 C 144.079 171.920 144.110 171.889 144.110 171.850 V 165.850 C 144.110 165.811 144.079 165.780 144.040 165.780 H 141.110 C 141.040 165.780 141.110 165.850 141.110 165.780 V 159.920 C 141.110 159.850 141.040 159.920 141.110 159.920 H 144.040 C 144.079 159.920 144.110 159.889 144.110 159.850 V 153.850 C 144.110 153.811 144.079 153.780 144.040 153.780 H 141.110 C 141.040 153.780 141.110 153.850 141.110 153.780 V 147.920 C 141.110 147.850 141.040 147.920 141.110 147.920 H 144.040 C 144.079 147.920 144.110 147.889 144.110 147.850 V 141.850 C 144.110 141.811 144.079 141.780 144.040 141.780 H 141.110 C 141.040 141.780 141.110 141.850 141.110 141.780 V 135.350 V 129.350 C 141.110 129.311 141.079 129.280 141.040 129.280 H 133.190 C 133.002 129.280 132.818 129.329 132.655 129.423 C 132.492 129.517 132.357 129.652 132.263 129.815 C 132.169 129.978 132.120 130.162 132.120 130.350 V 131.275 C 132.120 131.463 132.169 131.647 132.263 131.810 C 132.357 131.973 132.492 132.108 132.655 132.202 C 132.818 132.296 133.002 132.345 133.190 132.345 H 138.120 C 138.190 132.345 138.120 132.275 138.120 132.345 V 135.355 C 138.120 135.425 138.190 135.355 138.120 135.355 H 124.610 C 124.540 135.355 124.610 135.425 124.610 135.355 V 130.350 C 124.610 130.162 124.561 129.978 124.467 129.815 C 124.373 129.652 124.238 129.517 124.075 129.423 C 123.912 129.329 123.728 129.280 123.540 129.280 H 83.040 C 83.001 129.280 82.970 129.311 82.970 129.350 V 132.275 C 82.970 132.314 83.001 132.345 83.040 132.345 H 86.120 C 86.190 132.345 86.120 132.275 86.120 132.345 V 135.355 C 86.120 135.425 86.190 135.355 86.120 135.355 H 86.040 C 86.001 135.355 85.970 135.386 85.970 135.425 V 135.350 V 141.780 C 85.970 141.850 86.040 141.780 85.970 141.780 H 83.040 C 83.001 141.780 82.970 141.811 82.970 141.850 V 147.850 C 82.970 147.889 83.001 147.920 83.040 147.920 H 85.970 C 86.040 147.920 85.970 147.850 85.970 147.920 V 153.780 C 85.970 153.850 86.040 153.780 85.970 153.780 H 83.040 C 83.001 153.780 82.970 153.811 82.970 153.850 V 159.850 C 82.970 159.889 83.001 159.920 83.040 159.920 H 85.970 C 86.040 159.920 85.970 159.850 85.970 159.920 V 165.780 C 85.970 165.850 86.040 165.780 85.970 165.780 H 83.040 C 83.001 165.780 82.970 165.811 82.970 165.850 V 171.850 C 82.970 171.889 83.001 171.920 83.040 171.920 H 85.970 C 86.040 171.920 85.970 171.850 85.970 171.920 V 178.350 C 85.970 178.389 86.001 178.420 86.040 178.420"
       stroke="rgb(0,0,0)"
       stroke-width="0.14"
       id="path1112" />
    <path
       d="M 87.840 132.270 H 88.370 C 88.440 132.270 88.370 132.200 88.370 132.270 V 135.430 C 88.370 135.500 88.440 135.430 88.370 135.430 H 87.310 C 87.240 135.430 87.310 135.500 87.310 135.430 V 132.270 C 87.310 132.200 87.240 132.270 87.310 132.270 H 87.840 Z"
       stroke="rgb(0,0,255)"
       stroke-width="0.14"
       id="path1114" />
  </g>
  <g
     id="g4280"
     transform="translate(-66.310576,-11.563047)">
    <text
       style="font-style:normal;font-weight:normal;font-family:sans-serif;fill:#ff0000;stroke-linecap:round;stroke-linejoin:round"
       font-size="4px"
       text-anchor="middle"
       dominant-baseline="hanging"
       id="text1117"
       x="113.54"
       y="104.28">inner y 1</text>
    <path
       id="path1119"
       style="fill:none;stroke:#000000;stroke-linecap:round;stroke-linejoin:round"
       d="m 325.19141,319.89844 c -0.14741,0 -0.26563,0.11822 -0.26563,0.26562 v 18.63282 h -11.07422 c -0.1474,0 -0.26367,0.11627 -0.26367,0.26367 v 22.67773 c 0,0.1474 0.11627,0.26563 0.26367,0.26563 h 11.07422 v 22.14648 h -11.07422 c -0.1474,0 -0.26367,0.11822 -0.26367,0.26563 v 22.67773 c 0,0.1474 0.11627,0.26367 0.26367,0.26367 h 11.07422 v 22.14844 h -11.07422 c -0.1474,0 -0.26367,0.11627 -0.26367,0.26367 v 22.67774 c 0,0.1474 0.11627,0.26367 0.26367,0.26367 h 11.07422 v 18.63476 c 0,0.0125 13.02938,0.0112 15.74805,0.0215 v -57.38281 h 49.13281 v 57.45117 c 44.86078,0.0207 97.1906,0.0179 126.02539,-0.0273 v -18.39453 h 17.49805 V 452.711 h 11.07226 c 0.14741,0 0.26563,-0.11627 0.26563,-0.26367 v -22.67774 c 0,-0.1474 -0.11822,-0.26367 -0.26563,-0.26367 h -11.07226 v -22.14844 h 11.07226 c 0.14741,0 0.26563,-0.11627 0.26563,-0.26367 v -22.67773 c 0,-0.14741 -0.11822,-0.26563 -0.26563,-0.26563 h -11.07226 v -22.14648 h 11.07226 c 0.14741,0 0.26563,-0.11823 0.26563,-0.26563 v -22.67773 c 0,-0.1474 -0.11822,-0.26368 -0.26563,-0.26367 h -11.07226 v -18.63282 c 0,-0.1474 -0.11823,-0.26562 -0.26563,-0.26562 z"
       transform="scale(0.26458333)" />
  </g>
  <g
     id="g4057"
     transform="translate(162.43105,-69.808627)">
    <path
       d="m -65.52466,118.38064 h -2.93 c -0.07,0 0,0.07 0,0 v -2.86 c 0,-0.07 -0.07,0 0,0 h 5.86 c 0.07,0 0,-0.07 0,0 v 2.86 c 0,0.07 0.07,0 0,0 z"
       stroke="#0000ff"
       stroke-width="0.14"
       id="path1085-6"
       style="fill:none;stroke:#ff0000;stroke-linecap:round;stroke-linejoin:round" />
    <path
       d="m -53.52466,118.38064 h -2.93 c -0.07,0 0,0.07 0,0 v -2.86 c 0,-0.07 -0.07,0 0,0 h 5.86 c 0.07,0 0,-0.07 0,0 v 2.86 c 0,0.07 0.07,0 0,0 z"
       stroke="#0000ff"
       stroke-width="0.14"
       id="path1087-7"
       style="fill:none;stroke:#ff0000;stroke-linecap:round;stroke-linejoin:round" />
    <path
       d="m -41.52466,118.38064 h -2.93 c -0.07,0 0,0.07 0,0 v -2.86 c 0,-0.07 -0.07,0 0,0 h 5.86 c 0.07,0 0,-0.07 0,0 v 2.86 c 0,0.07 0.07,0 0,0 z"
       stroke="#0000ff"
       stroke-width="0.14"
       id="path1089-5"
       style="fill:none;stroke:#ff0000;stroke-linecap:round;stroke-linejoin:round" />
    <path
       d="m -29.52466,118.38064 h -2.93 c -0.07,0 0,0.07 0,0 v -2.86 c 0,-0.07 -0.07,0 0,0 h 5.86 c 0.07,0 0,-0.07 0,0 v 2.86 c 0,0.07 0.07,0 0,0 z"
       stroke="#0000ff"
       stroke-width="0.14"
       id="path1091-3"
       style="fill:none;stroke:#ff0000;stroke-linecap:round;stroke-linejoin:round" />
    <text
       transform="rotate(90)"
       style="font-style:normal;font-weight:normal;font-family:sans-serif;fill:#ff0000;stroke-linecap:round;stroke-linejoin:round"
       font-size="4px"
       text-anchor="middle"
       dominant-baseline="hanging"
       id="text1093-5"
       x="112.95064"
       y="45.594662">bottom</text>
    <path
       d="m -75.09466,80.450638 v 5.43 c 0,0.07 0.07,0 0,0 h -2.93 c -0.039,0 -0.07,0.031 -0.07,0.07 v 6 c 0,0.039 0.031,0.07 0.07,0.07 h 2.93 c 0.07,0 0,-0.07 0,0 v 5.86 c 0,0.07 0.07,0 0,0 h -2.93 c -0.039,0 -0.07,0.031 -0.07,0.07 v 6.000002 c 0,0.039 0.031,0.07 0.07,0.07 h 2.93 c 0.07,0 0,-0.07 0,0 v 5.86 c 0,0.07 0.07,0 0,0 h -2.93 c -0.039,0 -0.07,0.031 -0.07,0.07 v 6 c 0,0.039 0.031,0.07 0.07,0.07 h 2.93 c 0.07,0 0,-0.07 0,0 v 5.86 c 0,0.07 0.07,0 0,0 h -2.93 c -0.039,0 -0.07,0.031 -0.07,0.07 v 6 c 0,0.039 0.031,0.07 0.07,0.07 h 2.93 c 0.07,0 0,-0.07 0,0 v 5.86 c 0,0.07 0.07,0 0,0 h -2.93 c -0.039,0 -0.07,0.031 -0.07,0.07 v 6 c 0,0.039 0.031,0.07 0.07,0.07 h 2.93 c 0.07,0 0,-0.07 0,0 v 5.43 c 0,0.039 0.031,0.07 0.07,0.07 h 6.43 c 0.07,0 0,-0.07 0,0 v 2.93 c 0,0.039 0.031,0.07 0.07,0.07 h 6 c 0.039,0 0.07,-0.031 0.07,-0.07 v -2.93 c 0,-0.07 -0.07,0 0,0 h 5.86 c 0.07,0 0,-0.07 0,0 v 2.93 c 0,0.039 0.031,0.07 0.07,0.07 h 6 c 0.039,0 0.07,-0.031 0.07,-0.07 v -2.93 c 0,-0.07 -0.07,0 0,0 h 5.86 c 0.07,0 0,-0.07 0,0 v 2.93 c 0,0.039 0.031,0.07 0.07,0.07 h 6 c 0.039,0 0.07,-0.031 0.07,-0.07 v -2.93 c 0,-0.07 -0.07,0 0,0 h 5.86 c 0.07,0 0,-0.07 0,0 v 2.93 c 0,0.039 0.031,0.07 0.07,0.07 h 6 c 0.039,0 0.07,-0.031 0.07,-0.07 v -2.93 c 0,-0.07 -0.07,0 0,0 h 6.43 c 0.039,0 0.07,-0.031 0.07,-0.07 v -5.43 c 0,-0.07 -0.07,0 0,0 h 2.93 c 0.039,0 0.07,-0.031 0.07,-0.07 v -6 c 0,-0.039 -0.031,-0.07 -0.07,-0.07 h -2.93 c -0.07,0 0,0.07 0,0 v -5.86 c 0,-0.07 -0.07,0 0,0 h 2.93 c 0.039,0 0.07,-0.031 0.07,-0.07 v -6 c 0,-0.039 -0.031,-0.07 -0.07,-0.07 h -2.93 c -0.07,0 0,0.07 0,0 v -5.86 c 0,-0.07 -0.07,0 0,0 h 2.93 c 0.039,0 0.07,-0.031 0.07,-0.07 v -6 c 0,-0.039 -0.031,-0.07 -0.07,-0.07 h -2.93 c -0.07,0 0,0.07 0,0 v -5.86 c 0,-0.07 -0.07,0 0,0 h 2.93 c 0.039,0 0.07,-0.031 0.07,-0.07 v -6.000002 c 0,-0.039 -0.031,-0.07 -0.07,-0.07 h -2.93 c -0.07,0 0,0.07 0,0 v -5.86 c 0,-0.07 -0.07,0 0,0 h 2.93 c 0.039,0 0.07,-0.031 0.07,-0.07 v -6 c 0,-0.039 -0.031,-0.07 -0.07,-0.07 h -2.93 c -0.07,0 0,0.07 0,0 v -5.43 c 0,-0.039 -0.031,-0.07 -0.07,-0.07 h -6.43 c -0.07,0 0,0.07 0,0 v -2.93 c 0,-0.039 -0.031,-0.07 -0.07,-0.07 h -6 c -0.039,0 -0.07,0.031 -0.07,0.07 v 2.93 c 0,0.07 0.07,0 0,0 h -5.86 c -0.07,0 0,0.07 0,0 v -2.93 c 0,-0.039 -0.031,-0.07 -0.07,-0.07 h -6 c -0.039,0 -0.07,0.031 -0.07,0.07 v 2.93 c 0,0.07 0.07,0 0,0 h -5.86 c -0.07,0 0,0.07 0,0 v -2.93 c 0,-0.039 -0.031,-0.07 -0.07,-0.07 h -6 c -0.039,0 -0.07,0.031 -0.07,0.07 v 2.93 c 0,0.07 0.07,0 0,0 h -5.86 c -0.07,0 0,0.07 0,0 v -2.93 c 0,-0.039 -0.031,-0.07 -0.07,-0.07 h -6 c -0.039,0 -0.07,0.031 -0.07,0.07 v 2.93 c 0,0.07 0.07,0 0,0 h -6.43 c -0.039,0 -0.07,0.031 -0.07,0.07"
       stroke="#000000"
       stroke-width="0.14"
       id="path1095-6"
       style="fill:none;stroke-linecap:round;stroke-linejoin:round" />
    <g
       id="g2258"
       transform="translate(-0.83709475)">
      <circle
         style="fill:none;stroke:#0000ff;stroke-width:0.3"
         id="path2153"
         cx="-61.710613"
         cy="95.407135"
         r="3" />
      <circle
         style="fill:none;stroke:#0000ff;stroke-width:0.3"
         id="path2155"
         cx="-32.164516"
         cy="95.407135"
         r="3.5" />
    </g>
    <rect
       style="fill:none;stroke:#0000ff;stroke-width:0.3"
       id="rect2282"
       width="24"
       height="9"
       x="-59.362282"
       y="125.45858" />
  </g>
  <g
     id="g2414"
     transform="translate(225.81075,-92.475933)">
    <rect
       style="fill:none;stroke:#000000;stroke-width:0.3"
       id="rect2284"
       width="41.099998"
       height="15.2"
       x="-130.06696"
       y="173.13518" />
    <rect
       style="fill:none;stroke:#0000ff;stroke-width:0.300001"
       id="rect2286"
       width="38.100002"
       height="12.2"
       x="-128.56696"
       y="174.63518" />
  </g>
  <g
     id="g2619"
     transform="translate(161.09279,-76.990927)">
    <rect
       style="fill:none;stroke:#000000;stroke-width:0.3"
       id="rect2284-9"
       width="41.099998"
       height="15.2"
       x="-65.651192"
       y="175.64764" />
    <rect
       style="fill:none;stroke:#0000ff;stroke-width:0.300001"
       id="rect2286-1"
       width="5"
       height="12.2"
       x="-64.151192"
       y="177.14764" />
  </g>
  <rect
     style="fill:none;stroke:#000000;stroke-width:0.3"
     id="rect2284-7"
     width="44.099998"
     height="18.199999"
     x="-95.571304"
     y="105.77456" />
  <rect
     style="fill:none;stroke:#0000ff;stroke-width:0.300001"
     id="rect2286-0"
     width="38.100002"
     height="12.2"
     x="-92.571304"
     y="108.77456" />
  <rect
     style="fill:none;stroke:#000000;stroke-width:0.3"
     id="rect2284-7-0"
     width="44.099998"
     height="18.199999"
     x="-95.505318"
     y="84.603134" />
  <rect
     style="fill:none;stroke:#0000ff;stroke-width:0.300001"
     id="rect2286-0-6"
     width="38.100002"
     height="12.2"
     x="-92.505318"
     y="87.603134" />
  <g
     id="g4573"
     transform="translate(-2.421645,-33.962056)">
    <rect
       style="fill:none;stroke:#000000;stroke-width:0.3"
       id="rect2284-9-3"
       width="44.099998"
       height="18.199999"
       x="-93.053177"
       y="161.36414" />
    <rect
       style="fill:none;stroke:#0000ff;stroke-width:0.300001"
       id="rect2286-1-6"
       width="5"
       height="12.2"
       x="-90.053001"
       y="164.36414" />
  </g>
  <rect
     style="fill:none;stroke:#0000ff;stroke-width:0.3"
     id="rect3038"
     width="8"
     height="3"
     x="109.54"
     y="137.26697" />
</svg>
